{
  "title" : "",
  "description" : "",
  "author" : "",
  "width" : 1920.0,
  "height" : 1080.0,
  "version" : "0.5",
  "editRate" : 30,
  "authoringClientName" :  {
    "name" : "Camtasia Studio",
    "platform" : "Windows",
    "version" : "9.0"
  },
  "sourceBin" : [
    {
      "id" : 1,
      "src" : "E:\\Downloads\\This is the Last Frontier.mp3",
      "rect" : [0, 0, 0, 0],
      "lastMod" : "20210118T195016",
      "sourceTracks" : [
        {
          "range" : [0, 1841000000],
          "type" : 2,
          "editRate" : 10000000,
          "trackRect" : [0, 0, 0, 0],
          "sampleRate" : 44100,
          "bitDepth" : 0,
          "numChannels" : 2,
          "metaData" : ""
        }
      ]
    },
    {
      "id" : 2,
      "src" : "C:\\ProgramData\\TechSmith\\Camtasia Studio\\Library 3.0\\Animated Backgrounds - bokehdots\\Animated Backgrounds - bokehdots.mp4",
      "rect" : [0, 0, 1920, 1080],
      "lastMod" : "20160810T141334",
      "sourceTracks" : [
        {
          "range" : [0, 200333333],
          "type" : 0,
          "editRate" : 10000000,
          "trackRect" : [0, 0, 1920, 1080],
          "sampleRate" : "5000000/166833",
          "bitDepth" : 24,
          "numChannels" : 0,
          "metaData" : ""
        }
      ]
    },
    {
      "id" : 3,
      "src" : "C:\\ProgramData\\TechSmith\\Camtasia Studio\\Library 3.0\\Animated Backgrounds - floatingboxes\\Animated Backgrounds - floatingboxes.mp4",
      "rect" : [0, 0, 1920, 1080],
      "lastMod" : "20160810T141342",
      "sourceTracks" : [
        {
          "range" : [0, 100333333],
          "type" : 0,
          "editRate" : 10000000,
          "trackRect" : [0, 0, 1920, 1080],
          "sampleRate" : "2000000/66671",
          "bitDepth" : 24,
          "numChannels" : 0,
          "metaData" : ""
        }
      ]
    },
    {
      "id" : 4,
      "src" : "C:\\ProgramData\\TechSmith\\Camtasia Studio\\Library 3.0\\Animated Backgrounds - morphingtriangles\\Animated Backgrounds - morphingtriangles.mp4",
      "rect" : [0, 0, 1920, 1080],
      "lastMod" : "20160810T141354",
      "sourceTracks" : [
        {
          "range" : [0, 100000000],
          "type" : 0,
          "editRate" : 10000000,
          "trackRect" : [0, 0, 1920, 1080],
          "sampleRate" : "5000000/166833",
          "bitDepth" : 24,
          "numChannels" : 0,
          "metaData" : ""
        }
      ]
    },
    {
      "id" : 5,
      "src" : "C:\\ProgramData\\TechSmith\\Camtasia Studio\\Library 3.0\\Animated Backgrounds - triangledots\\Animated Backgrounds - triangledots.mp4",
      "rect" : [0, 0, 1920, 1080],
      "lastMod" : "20160810T141420",
      "sourceTracks" : [
        {
          "range" : [0, 300333333],
          "type" : 0,
          "editRate" : 10000000,
          "trackRect" : [0, 0, 1920, 1080],
          "sampleRate" : "10000000/333677",
          "bitDepth" : 24,
          "numChannels" : 0,
          "metaData" : ""
        }
      ]
    },
    {
      "id" : 6,
      "src" : "C:\\ProgramData\\TechSmith\\Camtasia Studio\\Library 3.0\\Animated Backgrounds - flyingapps\\Animated Backgrounds - flyingapps.mp4",
      "rect" : [0, 0, 1920, 1080],
      "lastMod" : "20160810T141604",
      "sourceTracks" : [
        {
          "range" : [0, 198333333],
          "type" : 0,
          "editRate" : 10000000,
          "trackRect" : [0, 0, 1920, 1080],
          "sampleRate" : "312500/10417",
          "bitDepth" : 24,
          "numChannels" : 0,
          "metaData" : ""
        }
      ]
    },
    {
      "id" : 7,
      "src" : "C:\\ProgramData\\TechSmith\\Camtasia Studio\\Library 3.0\\Animated Backgrounds - rainbowwaves\\Animated Backgrounds - rainbowwaves.mp4",
      "rect" : [0, 0, 1920, 1078],
      "lastMod" : "20160810T141410",
      "sourceTracks" : [
        {
          "range" : [0, 150000000],
          "type" : 0,
          "editRate" : 10000000,
          "trackRect" : [0, 0, 1920, 1078],
          "sampleRate" : "10000000/333333",
          "bitDepth" : 24,
          "numChannels" : 0,
          "metaData" : ""
        },
        {
          "range" : [0, 150000000],
          "type" : 2,
          "editRate" : 10000000,
          "trackRect" : [0, 0, 0, 0],
          "sampleRate" : 48000,
          "bitDepth" : 16,
          "numChannels" : 2,
          "metaData" : ""
        }
      ]
    },
    {
      "id" : 8,
      "src" : "C:\\ProgramData\\TechSmith\\Camtasia Studio\\Library 3.0\\Animated Backgrounds - spinningcounter\\Animated Backgrounds - spinningcounter.mp4",
      "rect" : [0, 0, 1920, 1080],
      "lastMod" : "20160810T141638",
      "sourceTracks" : [
        {
          "range" : [0, 272666667],
          "type" : 0,
          "editRate" : 10000000,
          "trackRect" : [0, 0, 1920, 1080],
          "sampleRate" : "1250000/50147",
          "bitDepth" : 24,
          "numChannels" : 0,
          "metaData" : ""
        },
        {
          "range" : [0, 272666667],
          "type" : 2,
          "editRate" : 10000000,
          "trackRect" : [0, 0, 0, 0],
          "sampleRate" : 48000,
          "bitDepth" : 16,
          "numChannels" : 2,
          "metaData" : ""
        }
      ]
    },
    {
      "id" : 9,
      "src" : "C:\\ProgramData\\TechSmith\\Camtasia Studio\\Library 3.0\\Animated Backgrounds - mountaindawn\\Animated Backgrounds - mountaindawn.mp4",
      "rect" : [0, 0, 1920, 1080],
      "lastMod" : "20160810T141404",
      "sourceTracks" : [
        {
          "range" : [0, 182333333],
          "type" : 0,
          "editRate" : 10000000,
          "trackRect" : [0, 0, 1920, 1080],
          "sampleRate" : "10000000/417093",
          "bitDepth" : 24,
          "numChannels" : 0,
          "metaData" : ""
        }
      ]
    },
    {
      "id" : 10,
      "src" : "C:\\ProgramData\\TechSmith\\Camtasia Studio\\Library 3.0\\Animated Backgrounds - redtriangles\\Animated Backgrounds - redtriangles.mp4",
      "rect" : [0, 0, 1920, 1080],
      "lastMod" : "20160810T141416",
      "sourceTracks" : [
        {
          "range" : [0, 300000000],
          "type" : 0,
          "editRate" : 10000000,
          "trackRect" : [0, 0, 1920, 1080],
          "sampleRate" : "10000000/333333",
          "bitDepth" : 24,
          "numChannels" : 0,
          "metaData" : ""
        }
      ]
    },
    {
      "id" : 11,
      "src" : "C:\\ProgramData\\TechSmith\\Camtasia Studio\\Library 3.0\\Motion Graphics - eLearning Brothers - hexagone-intro01\\Motion Graphics - eLearning Brothers - hexagone-intro01.jpg",
      "rect" : [0, 0, 1774, 2048],
      "lastMod" : "20160825T093544",
      "sourceTracks" : [
        {
          "range" : [0, 1],
          "type" : 1,
          "editRate" : 10000000,
          "trackRect" : [0, 0, 1774, 2048],
          "sampleRate" : 0,
          "bitDepth" : 24,
          "numChannels" : 0,
          "metaData" : ""
        }
      ]
    },
    {
      "id" : 12,
      "src" : "C:\\ProgramData\\TechSmith\\Camtasia Studio\\Library 3.0\\Motion Graphics - eLearning Brothers - hexagone-intro01\\Motion Graphics - eLearning Brothers - hexagone-intro01.png",
      "rect" : [0, 0, 2297, 1527],
      "lastMod" : "20160825T092528",
      "sourceTracks" : [
        {
          "range" : [0, 1],
          "type" : 1,
          "editRate" : 10000000,
          "trackRect" : [0, 0, 2297, 1527],
          "sampleRate" : 0,
          "bitDepth" : 32,
          "numChannels" : 0,
          "metaData" : ""
        }
      ]
    },
    {
      "id" : 13,
      "src" : "C:\\ProgramData\\TechSmith\\Camtasia Studio\\Library 3.0\\Motion Graphics - eLearning Brothers - hexagone-intro01\\Motion Graphics - eLearning Brothers - hexagone-intro01-02.png",
      "rect" : [0, 0, 1344, 1552],
      "lastMod" : "20160825T092528",
      "sourceTracks" : [
        {
          "range" : [0, 1],
          "type" : 1,
          "editRate" : 10000000,
          "trackRect" : [0, 0, 1344, 1552],
          "sampleRate" : 0,
          "bitDepth" : 32,
          "numChannels" : 0,
          "metaData" : ""
        }
      ]
    },
    {
      "id" : 14,
      "src" : "C:\\ProgramData\\TechSmith\\Camtasia Studio\\Library 3.0\\Motion Graphics - eLearning Brothers - hexagone-intro01\\Motion Graphics - eLearning Brothers - hexagone-intro01-03.png",
      "rect" : [0, 0, 812, 938],
      "lastMod" : "20160825T092528",
      "sourceTracks" : [
        {
          "range" : [0, 1],
          "type" : 1,
          "editRate" : 10000000,
          "trackRect" : [0, 0, 812, 938],
          "sampleRate" : 0,
          "bitDepth" : 32,
          "numChannels" : 0,
          "metaData" : ""
        }
      ]
    },
    {
      "id" : 15,
      "src" : "C:\\ProgramData\\TechSmith\\Camtasia Studio\\Library 3.0\\Motion Graphics - eLearning Brothers - hexagone-intro01\\Motion Graphics - eLearning Brothers - hexagone-intro01-04.png",
      "rect" : [0, 0, 432, 498],
      "lastMod" : "20160825T092528",
      "sourceTracks" : [
        {
          "range" : [0, 1],
          "type" : 1,
          "editRate" : 10000000,
          "trackRect" : [0, 0, 432, 498],
          "sampleRate" : 0,
          "bitDepth" : 32,
          "numChannels" : 0,
          "metaData" : ""
        }
      ]
    },
    {
      "id" : 16,
      "src" : "C:\\ProgramData\\TechSmith\\Camtasia Studio\\Library 3.0\\Motion Graphics - eLearning Brothers - hexagone-intro01\\Motion Graphics - eLearning Brothers - hexagone-intro01-05.png",
      "rect" : [0, 0, 4629, 4629],
      "lastMod" : "20160825T092528",
      "sourceTracks" : [
        {
          "range" : [0, 1],
          "type" : 1,
          "editRate" : 10000000,
          "trackRect" : [0, 0, 4629, 4629],
          "sampleRate" : 0,
          "bitDepth" : 32,
          "numChannels" : 0,
          "metaData" : ""
        }
      ]
    },
    {
      "id" : 17,
      "src" : "C:\\ProgramData\\TechSmith\\Camtasia Studio\\Library 3.0\\Motion Graphics - eLearning Brothers - hexagone-intro01\\Motion Graphics - eLearning Brothers - hexagone-intro01-06.png",
      "rect" : [0, 0, 83, 1369],
      "lastMod" : "20160825T092528",
      "sourceTracks" : [
        {
          "range" : [0, 1],
          "type" : 1,
          "editRate" : 10000000,
          "trackRect" : [0, 0, 83, 1369],
          "sampleRate" : 0,
          "bitDepth" : 32,
          "numChannels" : 0,
          "metaData" : ""
        }
      ]
    },
    {
      "id" : 18,
      "src" : "C:\\Users\\enriq\\Documents\\0Uni\\DV\\P4\\fpsTest\\Assets\\FPS\\Audio\\SFX\\UI\\Notification_Chime.wav",
      "rect" : [0, 0, 0, 0],
      "lastMod" : "20200803T080300",
      "sourceTracks" : [
        {
          "range" : [0, 1666667],
          "type" : 2,
          "editRate" : 10000000,
          "trackRect" : [0, 0, 0, 0],
          "sampleRate" : 44100,
          "bitDepth" : 16,
          "numChannels" : 2,
          "metaData" : ""
        }
      ]
    },
    {
      "id" : 19,
      "src" : "E:\\Downloads\\gameplay portion 1.mp4",
      "rect" : [0, 0, 1920, 976],
      "lastMod" : "20210121T102652",
      "sourceTracks" : [
        {
          "range" : [0, 5924000000],
          "type" : 0,
          "editRate" : 10000000,
          "trackRect" : [0, 0, 1920, 976],
          "sampleRate" : "625000/17357",
          "bitDepth" : 24,
          "numChannels" : 0,
          "metaData" : ""
        },
        {
          "range" : [0, 5924000000],
          "type" : 2,
          "editRate" : 10000000,
          "trackRect" : [0, 0, 0, 0],
          "sampleRate" : 48000,
          "bitDepth" : 16,
          "numChannels" : 2,
          "metaData" : ""
        }
      ]
    },
    {
      "id" : 20,
      "src" : "E:\\Downloads\\download (4).jpeg",
      "rect" : [0, 0, 474, 266],
      "lastMod" : "20210121T103207",
      "sourceTracks" : [
        {
          "range" : [0, 1],
          "type" : 1,
          "editRate" : 10000000,
          "trackRect" : [0, 0, 474, 266],
          "sampleRate" : 0,
          "bitDepth" : 24,
          "numChannels" : 0,
          "metaData" : ""
        }
      ]
    },
    {
      "id" : 21,
      "src" : "C:\\Users\\enriq\\Documents\\0Uni\\DV\\P4\\fpsTest\\Assets\\FPS\\Audio\\Music\\Wind Ambience.mp3",
      "rect" : [0, 0, 0, 0],
      "lastMod" : "20200803T080300",
      "sourceTracks" : [
        {
          "range" : [0, 386000000],
          "type" : 2,
          "editRate" : 10000000,
          "trackRect" : [0, 0, 0, 0],
          "sampleRate" : 48000,
          "bitDepth" : 0,
          "numChannels" : 2,
          "metaData" : ""
        }
      ]
    },
    {
      "id" : 22,
      "src" : "E:\\Downloads\\fpstest game.mp4",
      "rect" : [0, 0, 1920, 976],
      "lastMod" : "20210122T162215",
      "sourceTracks" : [
        {
          "range" : [0, 8452000000],
          "type" : 0,
          "editRate" : 10000000,
          "trackRect" : [0, 0, 1920, 976],
          "sampleRate" : "1000000/27773",
          "bitDepth" : 24,
          "numChannels" : 0,
          "metaData" : ""
        },
        {
          "range" : [0, 8452000000],
          "type" : 2,
          "editRate" : 10000000,
          "trackRect" : [0, 0, 0, 0],
          "sampleRate" : 48000,
          "bitDepth" : 16,
          "numChannels" : 2,
          "metaData" : ""
        }
      ]
    }
  ],
  "timeline" : {
    "id" : 23,
    "sceneTrack" : {
      "scenes" : [
        {
          "duration" : 68.8333333333333,
          "title" : "",
          "type" : "",
          "csml" : {
            "tracks" : [
              {
                "trackIndex" : 0,
                "medias" : [
                  {
                    "id" : 24,
                    "_type" : "AMFile",
                    "src" : 1,
                    "trackNumber" : 0,
                    "attributes" : {
                      "ident" : "This is the Last Frontier",
                      "sampleRate" : 44100,
                      "bitDepth" : 0,
                      "gain" : 1.0,
                      "mixToMono" : false
                    },
                      "channelNumber" : "0,1",
                    "parameters" : {
                      "volume" : {
                        "type" : "double",
                        "keyframes" : [
                          {
                            "time" : 0,
                            "value" : 1.0,
                            "duration" : 0
                          },
                          {
                            "time" : 4026,
                            "value" : 1.0,
                            "duration" : 0
                          },
                          {
                            "time" : 4027,
                            "value" : 0.0,
                            "duration" : 0
                          },
                          {
                            "time" : 4177,
                            "value" : 0.98901098901099,
                            "duration" : 0
                          }
                        ]
                      }
                    },
                    "effects" : [

                    ],
                    "start" : 30,
                    "duration" : 1496,
                    "mediaStart" : 4027,
                    "mediaDuration" : 1496,
                    "scalar" : 1,
                    "metadata" : {
                      "WinSubProjectDisplayName" : "",
                      "clipSpeedAttribute" : false
                    },
                    "animationTracks" : {

                    }
                  },
                  {
                    "id" : 25,
                    "_type" : "AMFile",
                    "src" : 21,
                    "trackNumber" : 0,
                    "attributes" : {
                      "ident" : "Wind Ambience",
                      "sampleRate" : 48000,
                      "bitDepth" : 0,
                      "gain" : 1.0,
                      "mixToMono" : false
                    },
                      "channelNumber" : "0,1",
                    "parameters" : {
                      "volume" : {
                        "type" : "double",
                        "keyframes" : [
                          {
                            "time" : -1,
                            "value" : 1.0,
                            "duration" : 0
                          },
                          {
                            "time" : 0,
                            "value" : 0.0,
                            "duration" : 0
                          },
                          {
                            "time" : 152,
                            "value" : 1.0,
                            "duration" : 0
                          },
                          {
                            "time" : 402,
                            "value" : 0.532967032967034,
                            "duration" : 0
                          },
                          {
                            "time" : 492,
                            "value" : 0.0,
                            "duration" : 0
                          },
                          {
                            "time" : 493,
                            "value" : 1.0,
                            "duration" : 0
                          }
                        ]
                      }
                    },
                    "effects" : [

                    ],
                    "start" : 1573,
                    "duration" : 492,
                    "mediaStart" : 0,
                    "mediaDuration" : 492,
                    "scalar" : 1,
                    "metadata" : {
                      "WinSubProjectDisplayName" : "",
                      "clipSpeedAttribute" : false
                    },
                    "animationTracks" : {

                    }
                  }
                ]
              },
              {
                "trackIndex" : 1,
                "medias" : [
                  {
                    "id" : 26,
                    "_type" : "VMFile",
                    "src" : 5,
                    "trackNumber" : 0,
                    "attributes" : {
                      "ident" : "triangledots"
                    },
                    "effects" : [
                        {
                          "effectName" : "ColorAdjustment",
                          "parameters" : {
                            "brightness" : -1.0,
                            "contrast" : 1.1875,
                            "saturation" : 2.0
                          }
                        },
                        {
                          "_type" : "GenericBehaviorEffect",
                          "effectName" : "fade",
                          "start" : 0,
                          "duration" : 371                        ,
                          "in" : {
                            "attributes" : {
                              "name" : "fadeIn",
                              "type" : 0,
                              "characterOrder" : 6,
                              "offsetBetweenCharacters" : "3/2",
                              "suggestedDurationPerCharacter" : "13199/100",
                              "overlapProportion" : 0,
                              "movement" : 0,
                              "springDamping" : 5.0,
                              "springStiffness" : 50.0,
                              "bounceBounciness" : 0.45
                            }
                          
                          },
                          "center" : {
                            "attributes" : {
                              "name" : "none",
                              "type" : 0,
                              "characterOrder" : 6,
                              "offsetBetweenCharacters" : 0,
                              "secondsPerLoop" : 1,
                              "numberOfLoops" : -1,
                              "delayBetweenLoops" : 0,
                              "offsetBetweenCharacters" : 0
                            }
                          
                          },
                          "out" : {
                            "attributes" : {
                              "name" : "fadeOut",
                              "type" : 0,
                              "characterOrder" : 6,
                              "offsetBetweenCharacters" : "3/2",
                              "suggestedDurationPerCharacter" : 141,
                              "overlapProportion" : 0,
                              "movement" : 0,
                              "springDamping" : 5.0,
                              "springStiffness" : 50.0,
                              "bounceBounciness" : 0.45
                            }
                          
                          },
                          "metadata" : {
                            "default-behavior-in-duration" : 30.0,
                            "default-behavior-out-duration" : 30.0
                          }
                        }
                    ],
                    "start" : 996,
                    "duration" : 371,
                    "mediaStart" : 0,
                    "mediaDuration" : 371,
                    "scalar" : 1,
                    "metadata" : {
                      "WinSubProjectDisplayName" : "",
                      "clipSpeedAttribute" : false
                    },
                    "animationTracks" : {

                    }
                  },
                  {
                    "id" : 27,
                    "_type" : "VMFile",
                    "src" : 5,
                    "trackNumber" : 0,
                    "attributes" : {
                      "ident" : "triangledots"
                    },
                    "effects" : [
                        {
                          "effectName" : "ColorAdjustment",
                          "parameters" : {
                            "brightness" : {
                              "type" : "double",
                              "defaultValue" : -1.0,
                              "interp" : "linr",
                              "uiHints" : {
                                "userInterfaceType" : 0,
                                "unitType" : 0
                              }
                            },
                            "contrast" : {
                              "type" : "double",
                              "defaultValue" : 1.1875,
                              "interp" : "linr",
                              "uiHints" : {
                                "userInterfaceType" : 0,
                                "unitType" : 0
                              }
                            },
                            "saturation" : {
                              "type" : "double",
                              "defaultValue" : 2.0,
                              "interp" : "linr",
                              "uiHints" : {
                                "userInterfaceType" : 0,
                                "unitType" : 0
                              }
                            }
                          }
                        },
                        {
                          "_type" : "GenericBehaviorEffect",
                          "effectName" : "fade",
                          "start" : 0,
                          "duration" : 492                        ,
                          "in" : {
                            "attributes" : {
                              "name" : "fadeIn",
                              "type" : 0,
                              "characterOrder" : 6,
                              "offsetBetweenCharacters" : "3/2",
                              "suggestedDurationPerCharacter" : "13199/100",
                              "overlapProportion" : 0,
                              "movement" : 0,
                              "springDamping" : 5.0,
                              "springStiffness" : 50.0,
                              "bounceBounciness" : 0.45
                            }
                          
                          },
                          "center" : {
                            "attributes" : {
                              "name" : "none",
                              "type" : 0,
                              "characterOrder" : 6,
                              "offsetBetweenCharacters" : 0,
                              "secondsPerLoop" : 1,
                              "numberOfLoops" : -1,
                              "delayBetweenLoops" : 0,
                              "offsetBetweenCharacters" : 0
                            }
                          
                          },
                          "out" : {
                            "attributes" : {
                              "name" : "fadeOut",
                              "type" : 0,
                              "characterOrder" : 6,
                              "offsetBetweenCharacters" : "3/2",
                              "suggestedDurationPerCharacter" : 141,
                              "overlapProportion" : 0,
                              "movement" : 0,
                              "springDamping" : 5.0,
                              "springStiffness" : 50.0,
                              "bounceBounciness" : 0.45
                            }
                          
                          },
                          "metadata" : {
                            "default-behavior-in-duration" : 30.0,
                            "default-behavior-out-duration" : 30.0
                          }
                        }
                    ],
                    "start" : 1573,
                    "duration" : 492,
                    "mediaStart" : 0,
                    "mediaDuration" : 492,
                    "scalar" : 1,
                    "metadata" : {
                      "WinSubProjectDisplayName" : "",
                      "clipSpeedAttribute" : false
                    },
                    "animationTracks" : {

                    }
                  }
                ]
              },
              {
                "trackIndex" : 2,
                "medias" : [
                  {
                    "id" : 28,
                    "_type" : "Group",
                    "parameters" : {
                      "volume" : 1.0
                    },
                    "tracks" : [
                      {
                        "trackIndex" : 0,
                        "medias" : [
                          {
                            "id" : 29,
                            "_type" : "Callout",
                            "def" : {
                              "kind" : "remix",
                              "shape" : "text",
                              "style" : "basic",
                              "height" : 125.999999999979,
                              "width" : 935.930033222665,
                              "word-wrap" : 1.0,
                              "horizontal-alignment" : "left",
                              "text" : ">help",
                              "vertical-alignment" : "center",
                              "font" : {
                                "color-blue" : 1.0,
                                "color-green" : 1.0,
                                "color-red" : 1.0,
                                "size" : 96.0,
                                "tracking" : 0.0,
                                "name" : "Montserrat",
                                "weight" : "Regular"
                              },
                              "textAttributes" : {
                                "type" : "textAttributeList",
                                "keyframes" : [
                                  {
                                    "time" : 0,
                                    "value" : [{"name":"fontWeight","rangeEnd":5,"rangeStart":0,"value":100,"valueType":"int"},{"name":"fontItalic","rangeEnd":5,"rangeStart":0,"value":0,"valueType":"int"},{"name":"strikethrough","rangeEnd":5,"rangeStart":0,"value":0,"valueType":"int"},{"name":"fgColor","rangeEnd":5,"rangeStart":0,"value":"(27,157,44,255)","valueType":"color"},{"name":"fontSize","rangeEnd":5,"rangeStart":0,"value":80,"valueType":"double"},{"name":"underline","rangeEnd":5,"rangeStart":0,"value":0,"valueType":"int"},{"name":"fontName","rangeEnd":5,"rangeStart":0,"value":"OCR A Extended","valueType":"string"}],
                                    "duration" : 0
                                  }
                                ]
                              }
                            },
                            "attributes" : {
                              "autoRotateText" : true
                            },
                            "parameters" : {
                              "translation0" : 0.0349833886847364,
                              "translation1" : -62.9999999999272
                            },
                            "effects" : [
                                {
                                  "effectName" : "DropShadow",
                                  "parameters" : {
                                    "angle" : {
                                      "type" : "double",
                                      "defaultValue" : 5.49778714378214,
                                      "valueBounds" : {
                                        "minValue" : 0.0,
                                        "maxValue" : 0.0,
                                        "defaultValue" : 5.49778714378214
                                      },
                                      "uiHints" : {
                                        "userInterfaceType" : 0,
                                        "unitType" : 0
                                      }
                                    },
                                    "blur" : {
                                      "type" : "double",
                                      "defaultValue" : 10.0,
                                      "valueBounds" : {
                                        "minValue" : 0.0,
                                        "maxValue" : 50.0,
                                        "defaultValue" : 10.0
                                      },
                                      "uiHints" : {
                                        "userInterfaceType" : 0,
                                        "unitType" : 0
                                      }
                                    },
                                    "color-alpha" : {
                                      "type" : "double",
                                      "defaultValue" : 1.0,
                                      "valueBounds" : {
                                        "minValue" : 0.0,
                                        "maxValue" : 1.0,
                                        "defaultValue" : 1.0
                                      },
                                      "uiHints" : {
                                        "userInterfaceType" : 0,
                                        "unitType" : 0
                                      }
                                    },
                                    "color-blue" : {
                                      "type" : "double",
                                      "defaultValue" : 0.1216,
                                      "valueBounds" : {
                                        "minValue" : 0.0,
                                        "maxValue" : 1.0,
                                        "defaultValue" : 0.1216
                                      },
                                      "uiHints" : {
                                        "userInterfaceType" : 0,
                                        "unitType" : 0
                                      }
                                    },
                                    "color-green" : {
                                      "type" : "double",
                                      "defaultValue" : 0.1216,
                                      "valueBounds" : {
                                        "minValue" : 0.0,
                                        "maxValue" : 1.0,
                                        "defaultValue" : 0.1216
                                      },
                                      "uiHints" : {
                                        "userInterfaceType" : 0,
                                        "unitType" : 0
                                      }
                                    },
                                    "color-red" : {
                                      "type" : "double",
                                      "defaultValue" : 0.1216,
                                      "valueBounds" : {
                                        "minValue" : 0.0,
                                        "maxValue" : 1.0,
                                        "defaultValue" : 0.1216
                                      },
                                      "uiHints" : {
                                        "userInterfaceType" : 0,
                                        "unitType" : 0
                                      }
                                    },
                                    "enabled" : {
                                      "type" : "int",
                                      "valueBounds" : {
                                        "minValue" : 0,
                                        "maxValue" : 1,
                                        "defaultValue" : 1
                                      },
                                      "uiHints" : {
                                        "userInterfaceType" : 0,
                                        "unitType" : 0
                                      },
                                      "keyframes" : [
                                        {
                                          "time" : 0,
                                          "value" : 1,
                                          "duration" : 0
                                        }
                                      ]
                                    },
                                    "offset" : {
                                      "type" : "double",
                                      "defaultValue" : 10.0,
                                      "valueBounds" : {
                                        "minValue" : 0.0,
                                        "maxValue" : 250.0,
                                        "defaultValue" : 10.0
                                      },
                                      "uiHints" : {
                                        "userInterfaceType" : 0,
                                        "unitType" : 0
                                      }
                                    },
                                    "opacity" : {
                                      "type" : "double",
                                      "defaultValue" : 0.4,
                                      "valueBounds" : {
                                        "minValue" : 0.0,
                                        "maxValue" : 1.0,
                                        "defaultValue" : 0.4
                                      },
                                      "uiHints" : {
                                        "userInterfaceType" : 0,
                                        "unitType" : 0
                                      }
                                    }
                                  }
                                },
                                {
                                  "_type" : "GenericBehaviorEffect",
                                  "effectName" : "reveal",
                                  "start" : 0,
                                  "duration" : 50                                ,
                                  "in" : {
                                    "attributes" : {
                                      "name" : "none",
                                      "type" : 1,
                                      "characterOrder" : 6,
                                      "offsetBetweenCharacters" : 0,
                                      "suggestedDurationPerCharacter" : 0,
                                      "overlapProportion" : 0,
                                      "movement" : -1,
                                      "springDamping" : 5.0,
                                      "springStiffness" : 50.0,
                                      "bounceBounciness" : 0.45
                                    }
                                  
                                  },
                                  "center" : {
                                    "attributes" : {
                                      "name" : "none",
                                      "type" : 1,
                                      "characterOrder" : 6,
                                      "offsetBetweenCharacters" : 0,
                                      "secondsPerLoop" : 1,
                                      "numberOfLoops" : -1,
                                      "delayBetweenLoops" : 0,
                                      "offsetBetweenCharacters" : 0
                                    }
                                  
                                  },
                                  "out" : {
                                    "attributes" : {
                                      "name" : "none",
                                      "type" : 1,
                                      "characterOrder" : 6,
                                      "offsetBetweenCharacters" : 0,
                                      "suggestedDurationPerCharacter" : 0,
                                      "overlapProportion" : 0,
                                      "movement" : -1,
                                      "springDamping" : 5.0,
                                      "springStiffness" : 50.0,
                                      "bounceBounciness" : 0.45
                                    }
                                  
                                  },
                                  "metadata" : {
                                    "default-behavior-in-style" : "reveal",
                                    "default-behavior-out-style" : "reveal"
                                  }
                                }
                            ],
                            "start" : 0,
                            "duration" : 50,
                            "mediaStart" : 0,
                            "mediaDuration" : 50,
                            "scalar" : 1,
                            "metadata" : {
                              "WinSubProjectDisplayName" : "",
                              "clipSpeedAttribute" : false,
                              "default-HAlign" : "left",
                              "default-VAlign" : "center",
                              "default-text-attributes" : "[{\"name\":\"fontSize\",\"rangeEnd\":18,\"rangeStart\":0,\"value\":88,\"valueType\":\"double\"},{\"name\":\"fgColor\",\"rangeEnd\":18,\"rangeStart\":0,\"value\":\"(255,255,255,255)\",\"valueType\":\"color\"},{\"name\":\"fontName\",\"rangeEnd\":18,\"rangeStart\":0,\"value\":\"Montserrat\",\"valueType\":\"string\"},{\"name\":\"fontItalic\",\"rangeEnd\":18,\"rangeStart\":0,\"value\":0,\"valueType\":\"int\"},{\"name\":\"underline\",\"rangeEnd\":18,\"rangeStart\":0,\"value\":0,\"valueType\":\"int\"},{\"name\":\"fontWeight\",\"rangeEnd\":18,\"rangeStart\":0,\"value\":100,\"valueType\":\"int\"},{\"name\":\"strikethrough\",\"rangeEnd\":18,\"rangeStart\":0,\"value\":0,\"valueType\":\"int\"}]",
                              "default-translation0" : -436.428571428523,
                              "default-translation1" : -318.000000000136
                            },
                            "animationTracks" : {

                            }
                          }
                        ],
                          "ident" : "",
                          "audioMuted" : false,
                          "videoHidden" : false,
                          "metadata" : {
                            "IsLocked" : "False",
                            "WinTrackHeight" : "0"
                          }
                      },
                      {
                        "trackIndex" : 1,
                        "medias" : [
                        ],
                          "ident" : "",
                          "audioMuted" : false,
                          "videoHidden" : false,
                          "metadata" : {
                            "IsLocked" : "False",
                            "WinTrackHeight" : "1.17099070449647e-311"
                          }
                      }
                    ],
                    "attributes" : {
                      "ident" : "basictext-01",
                      "gain" : 1.0,
                      "mixToMono" : false
                    },
                    "effects" : [

                    ],
                    "start" : 123,
                    "duration" : 50,
                    "mediaStart" : 0.0,
                    "mediaDuration" : 50.0,
                    "scalar" : 1,
                    "metadata" : {
                      "IsGroupExpanded" : "False",
                      "WinSubProjectDisplayName" : ""
                    },
                    "animationTracks" : {

                    }
                  },
                  {
                    "id" : 30,
                    "_type" : "Group",
                    "parameters" : {
                      "volume" : 1.0
                    },
                    "tracks" : [
                      {
                        "trackIndex" : 0,
                        "medias" : [
                        ],
                          "ident" : "",
                          "audioMuted" : false,
                          "videoHidden" : false,
                          "metadata" : {
                            "IsLocked" : "False",
                            "WinTrackHeight" : "0"
                          }
                      },
                      {
                        "trackIndex" : 1,
                        "medias" : [
                          {
                            "id" : 31,
                            "_type" : "Callout",
                            "def" : {
                              "kind" : "remix",
                              "shape" : "text",
                              "style" : "basic",
                              "height" : 125.999999999979,
                              "width" : 935.930033222665,
                              "word-wrap" : 1.0,
                              "horizontal-alignment" : "left",
                              "text" : "> don't",
                              "vertical-alignment" : "center",
                              "font" : {
                                "color-blue" : 1.0,
                                "color-green" : 1.0,
                                "color-red" : 1.0,
                                "size" : 96.0,
                                "tracking" : 0.0,
                                "name" : "Montserrat",
                                "weight" : "Regular"
                              },
                              "textAttributes" : {
                                "type" : "textAttributeList",
                                "keyframes" : [
                                  {
                                    "time" : 0,
                                    "value" : [{"name":"underline","rangeEnd":7,"rangeStart":0,"value":0,"valueType":"int"},{"name":"fontName","rangeEnd":7,"rangeStart":0,"value":"OCR A Extended","valueType":"string"},{"name":"fontWeight","rangeEnd":7,"rangeStart":0,"value":100,"valueType":"int"},{"name":"strikethrough","rangeEnd":7,"rangeStart":0,"value":0,"valueType":"int"},{"name":"fontItalic","rangeEnd":7,"rangeStart":0,"value":0,"valueType":"int"},{"name":"fgColor","rangeEnd":7,"rangeStart":0,"value":"(27,157,44,255)","valueType":"color"},{"name":"fontSize","rangeEnd":7,"rangeStart":0,"value":80,"valueType":"double"}],
                                    "duration" : 0
                                  }
                                ]
                              }
                            },
                            "attributes" : {
                              "autoRotateText" : true
                            },
                            "parameters" : {
                              "translation0" : 0.034983388650744,
                              "translation1" : -62.9999999999199
                            },
                            "effects" : [
                                {
                                  "effectName" : "DropShadow",
                                  "parameters" : {
                                    "angle" : {
                                      "type" : "double",
                                      "defaultValue" : 5.49778714378214,
                                      "valueBounds" : {
                                        "minValue" : 0.0,
                                        "maxValue" : 0.0,
                                        "defaultValue" : 5.49778714378214
                                      },
                                      "uiHints" : {
                                        "userInterfaceType" : 0,
                                        "unitType" : 0
                                      }
                                    },
                                    "blur" : {
                                      "type" : "double",
                                      "defaultValue" : 10.0,
                                      "valueBounds" : {
                                        "minValue" : 0.0,
                                        "maxValue" : 50.0,
                                        "defaultValue" : 10.0
                                      },
                                      "uiHints" : {
                                        "userInterfaceType" : 0,
                                        "unitType" : 0
                                      }
                                    },
                                    "color-alpha" : {
                                      "type" : "double",
                                      "defaultValue" : 1.0,
                                      "valueBounds" : {
                                        "minValue" : 0.0,
                                        "maxValue" : 1.0,
                                        "defaultValue" : 1.0
                                      },
                                      "uiHints" : {
                                        "userInterfaceType" : 0,
                                        "unitType" : 0
                                      }
                                    },
                                    "color-blue" : {
                                      "type" : "double",
                                      "defaultValue" : 0.1216,
                                      "valueBounds" : {
                                        "minValue" : 0.0,
                                        "maxValue" : 1.0,
                                        "defaultValue" : 0.1216
                                      },
                                      "uiHints" : {
                                        "userInterfaceType" : 0,
                                        "unitType" : 0
                                      }
                                    },
                                    "color-green" : {
                                      "type" : "double",
                                      "defaultValue" : 0.1216,
                                      "valueBounds" : {
                                        "minValue" : 0.0,
                                        "maxValue" : 1.0,
                                        "defaultValue" : 0.1216
                                      },
                                      "uiHints" : {
                                        "userInterfaceType" : 0,
                                        "unitType" : 0
                                      }
                                    },
                                    "color-red" : {
                                      "type" : "double",
                                      "defaultValue" : 0.1216,
                                      "valueBounds" : {
                                        "minValue" : 0.0,
                                        "maxValue" : 1.0,
                                        "defaultValue" : 0.1216
                                      },
                                      "uiHints" : {
                                        "userInterfaceType" : 0,
                                        "unitType" : 0
                                      }
                                    },
                                    "enabled" : {
                                      "type" : "int",
                                      "valueBounds" : {
                                        "minValue" : 0,
                                        "maxValue" : 1,
                                        "defaultValue" : 1
                                      },
                                      "uiHints" : {
                                        "userInterfaceType" : 0,
                                        "unitType" : 0
                                      },
                                      "keyframes" : [
                                        {
                                          "time" : 0,
                                          "value" : 1,
                                          "duration" : 0
                                        }
                                      ]
                                    },
                                    "offset" : {
                                      "type" : "double",
                                      "defaultValue" : 10.0,
                                      "valueBounds" : {
                                        "minValue" : 0.0,
                                        "maxValue" : 250.0,
                                        "defaultValue" : 10.0
                                      },
                                      "uiHints" : {
                                        "userInterfaceType" : 0,
                                        "unitType" : 0
                                      }
                                    },
                                    "opacity" : {
                                      "type" : "double",
                                      "defaultValue" : 0.4,
                                      "valueBounds" : {
                                        "minValue" : 0.0,
                                        "maxValue" : 1.0,
                                        "defaultValue" : 0.4
                                      },
                                      "uiHints" : {
                                        "userInterfaceType" : 0,
                                        "unitType" : 0
                                      }
                                    }
                                  }
                                },
                                {
                                  "_type" : "GenericBehaviorEffect",
                                  "effectName" : "reveal",
                                  "start" : 0,
                                  "duration" : 57                                ,
                                  "in" : {
                                    "attributes" : {
                                      "name" : "none",
                                      "type" : 1,
                                      "characterOrder" : 6,
                                      "offsetBetweenCharacters" : 0,
                                      "suggestedDurationPerCharacter" : 0,
                                      "overlapProportion" : 0,
                                      "movement" : -1,
                                      "springDamping" : 5.0,
                                      "springStiffness" : 50.0,
                                      "bounceBounciness" : 0.45
                                    }
                                  
                                  },
                                  "center" : {
                                    "attributes" : {
                                      "name" : "none",
                                      "type" : 1,
                                      "characterOrder" : 6,
                                      "offsetBetweenCharacters" : 0,
                                      "secondsPerLoop" : 1,
                                      "numberOfLoops" : -1,
                                      "delayBetweenLoops" : 0,
                                      "offsetBetweenCharacters" : 0
                                    }
                                  
                                  },
                                  "out" : {
                                    "attributes" : {
                                      "name" : "none",
                                      "type" : 1,
                                      "characterOrder" : 6,
                                      "offsetBetweenCharacters" : 0,
                                      "suggestedDurationPerCharacter" : 0,
                                      "overlapProportion" : 0,
                                      "movement" : -1,
                                      "springDamping" : 5.0,
                                      "springStiffness" : 50.0,
                                      "bounceBounciness" : 0.45
                                    }
                                  
                                  },
                                  "metadata" : {
                                    "default-behavior-in-style" : "reveal",
                                    "default-behavior-out-style" : "reveal"
                                  }
                                }
                            ],
                            "start" : 0,
                            "duration" : 57,
                            "mediaStart" : 0,
                            "mediaDuration" : 57,
                            "scalar" : 1,
                            "metadata" : {
                              "WinSubProjectDisplayName" : "",
                              "clipSpeedAttribute" : false,
                              "default-HAlign" : "left",
                              "default-VAlign" : "center",
                              "default-text-attributes" : "[{\"name\":\"fontSize\",\"rangeEnd\":18,\"rangeStart\":0,\"value\":88,\"valueType\":\"double\"},{\"name\":\"fgColor\",\"rangeEnd\":18,\"rangeStart\":0,\"value\":\"(255,255,255,255)\",\"valueType\":\"color\"},{\"name\":\"fontName\",\"rangeEnd\":18,\"rangeStart\":0,\"value\":\"Montserrat\",\"valueType\":\"string\"},{\"name\":\"fontItalic\",\"rangeEnd\":18,\"rangeStart\":0,\"value\":0,\"valueType\":\"int\"},{\"name\":\"underline\",\"rangeEnd\":18,\"rangeStart\":0,\"value\":0,\"valueType\":\"int\"},{\"name\":\"fontWeight\",\"rangeEnd\":18,\"rangeStart\":0,\"value\":100,\"valueType\":\"int\"},{\"name\":\"strikethrough\",\"rangeEnd\":18,\"rangeStart\":0,\"value\":0,\"valueType\":\"int\"}]",
                              "default-translation0" : -436.428571428523,
                              "default-translation1" : -318.000000000136
                            },
                            "animationTracks" : {

                            }
                          }
                        ],
                          "ident" : "",
                          "audioMuted" : false,
                          "videoHidden" : false,
                          "metadata" : {
                            "IsLocked" : "False",
                            "WinTrackHeight" : "1.17099070449647e-311"
                          }
                      }
                    ],
                    "attributes" : {
                      "ident" : "basictext-01",
                      "gain" : 1.0,
                      "mixToMono" : false
                    },
                    "effects" : [

                    ],
                    "start" : 232,
                    "duration" : 57,
                    "mediaStart" : 0.0,
                    "mediaDuration" : 57.0,
                    "scalar" : 1,
                    "metadata" : {
                      "IsGroupExpanded" : "False",
                      "WinSubProjectDisplayName" : ""
                    },
                    "animationTracks" : {

                    }
                  },
                  {
                    "id" : 32,
                    "_type" : "Group",
                    "parameters" : {
                      "volume" : 1.0
                    },
                    "tracks" : [
                      {
                        "trackIndex" : 0,
                        "medias" : [
                        ],
                          "ident" : "",
                          "audioMuted" : false,
                          "videoHidden" : false,
                          "metadata" : {
                            "IsLocked" : "False",
                            "WinTrackHeight" : "0"
                          }
                      },
                      {
                        "trackIndex" : 1,
                        "medias" : [
                          {
                            "id" : 33,
                            "_type" : "Callout",
                            "def" : {
                              "kind" : "remix",
                              "shape" : "text",
                              "style" : "basic",
                              "height" : 125.999999999979,
                              "width" : 935.930033222665,
                              "word-wrap" : 1.0,
                              "horizontal-alignment" : "left",
                              "text" : "> leave",
                              "vertical-alignment" : "center",
                              "font" : {
                                "color-blue" : 1.0,
                                "color-green" : 1.0,
                                "color-red" : 1.0,
                                "size" : 96.0,
                                "tracking" : 0.0,
                                "name" : "Montserrat",
                                "weight" : "Regular"
                              },
                              "textAttributes" : {
                                "type" : "textAttributeList",
                                "keyframes" : [
                                  {
                                    "time" : 0,
                                    "value" : [{"name":"fgColor","rangeEnd":7,"rangeStart":0,"value":"(27,157,44,255)","valueType":"color"},{"name":"fontSize","rangeEnd":7,"rangeStart":0,"value":80,"valueType":"double"},{"name":"underline","rangeEnd":7,"rangeStart":0,"value":0,"valueType":"int"},{"name":"fontItalic","rangeEnd":7,"rangeStart":0,"value":0,"valueType":"int"},{"name":"fontName","rangeEnd":7,"rangeStart":0,"value":"OCR A Extended","valueType":"string"},{"name":"strikethrough","rangeEnd":7,"rangeStart":0,"value":0,"valueType":"int"},{"name":"fontWeight","rangeEnd":7,"rangeStart":0,"value":100,"valueType":"int"}],
                                    "duration" : 0
                                  }
                                ]
                              }
                            },
                            "attributes" : {
                              "autoRotateText" : true
                            },
                            "parameters" : {
                              "translation0" : 0.0349833886954229,
                              "translation1" : -63.0000000000339
                            },
                            "effects" : [
                                {
                                  "effectName" : "DropShadow",
                                  "parameters" : {
                                    "angle" : {
                                      "type" : "double",
                                      "defaultValue" : 5.49778714378214,
                                      "valueBounds" : {
                                        "minValue" : 0.0,
                                        "maxValue" : 0.0,
                                        "defaultValue" : 5.49778714378214
                                      },
                                      "uiHints" : {
                                        "userInterfaceType" : 0,
                                        "unitType" : 0
                                      }
                                    },
                                    "blur" : {
                                      "type" : "double",
                                      "defaultValue" : 10.0,
                                      "valueBounds" : {
                                        "minValue" : 0.0,
                                        "maxValue" : 50.0,
                                        "defaultValue" : 10.0
                                      },
                                      "uiHints" : {
                                        "userInterfaceType" : 0,
                                        "unitType" : 0
                                      }
                                    },
                                    "color-alpha" : {
                                      "type" : "double",
                                      "defaultValue" : 1.0,
                                      "valueBounds" : {
                                        "minValue" : 0.0,
                                        "maxValue" : 1.0,
                                        "defaultValue" : 1.0
                                      },
                                      "uiHints" : {
                                        "userInterfaceType" : 0,
                                        "unitType" : 0
                                      }
                                    },
                                    "color-blue" : {
                                      "type" : "double",
                                      "defaultValue" : 0.1216,
                                      "valueBounds" : {
                                        "minValue" : 0.0,
                                        "maxValue" : 1.0,
                                        "defaultValue" : 0.1216
                                      },
                                      "uiHints" : {
                                        "userInterfaceType" : 0,
                                        "unitType" : 0
                                      }
                                    },
                                    "color-green" : {
                                      "type" : "double",
                                      "defaultValue" : 0.1216,
                                      "valueBounds" : {
                                        "minValue" : 0.0,
                                        "maxValue" : 1.0,
                                        "defaultValue" : 0.1216
                                      },
                                      "uiHints" : {
                                        "userInterfaceType" : 0,
                                        "unitType" : 0
                                      }
                                    },
                                    "color-red" : {
                                      "type" : "double",
                                      "defaultValue" : 0.1216,
                                      "valueBounds" : {
                                        "minValue" : 0.0,
                                        "maxValue" : 1.0,
                                        "defaultValue" : 0.1216
                                      },
                                      "uiHints" : {
                                        "userInterfaceType" : 0,
                                        "unitType" : 0
                                      }
                                    },
                                    "enabled" : {
                                      "type" : "int",
                                      "valueBounds" : {
                                        "minValue" : 0,
                                        "maxValue" : 1,
                                        "defaultValue" : 1
                                      },
                                      "uiHints" : {
                                        "userInterfaceType" : 0,
                                        "unitType" : 0
                                      },
                                      "keyframes" : [
                                        {
                                          "time" : 0,
                                          "value" : 1,
                                          "duration" : 0
                                        }
                                      ]
                                    },
                                    "offset" : {
                                      "type" : "double",
                                      "defaultValue" : 10.0,
                                      "valueBounds" : {
                                        "minValue" : 0.0,
                                        "maxValue" : 250.0,
                                        "defaultValue" : 10.0
                                      },
                                      "uiHints" : {
                                        "userInterfaceType" : 0,
                                        "unitType" : 0
                                      }
                                    },
                                    "opacity" : {
                                      "type" : "double",
                                      "defaultValue" : 0.4,
                                      "valueBounds" : {
                                        "minValue" : 0.0,
                                        "maxValue" : 1.0,
                                        "defaultValue" : 0.4
                                      },
                                      "uiHints" : {
                                        "userInterfaceType" : 0,
                                        "unitType" : 0
                                      }
                                    }
                                  }
                                },
                                {
                                  "_type" : "GenericBehaviorEffect",
                                  "effectName" : "reveal",
                                  "start" : 1,
                                  "duration" : 56                                ,
                                  "in" : {
                                    "attributes" : {
                                      "name" : "none",
                                      "type" : 1,
                                      "characterOrder" : 6,
                                      "offsetBetweenCharacters" : 0,
                                      "suggestedDurationPerCharacter" : 0,
                                      "overlapProportion" : 0,
                                      "movement" : -1,
                                      "springDamping" : 5.0,
                                      "springStiffness" : 50.0,
                                      "bounceBounciness" : 0.45
                                    }
                                  
                                  },
                                  "center" : {
                                    "attributes" : {
                                      "name" : "none",
                                      "type" : 1,
                                      "characterOrder" : 6,
                                      "offsetBetweenCharacters" : 0,
                                      "secondsPerLoop" : 1,
                                      "numberOfLoops" : -1,
                                      "delayBetweenLoops" : 0,
                                      "offsetBetweenCharacters" : 0
                                    }
                                  
                                  },
                                  "out" : {
                                    "attributes" : {
                                      "name" : "none",
                                      "type" : 1,
                                      "characterOrder" : 6,
                                      "offsetBetweenCharacters" : 0,
                                      "suggestedDurationPerCharacter" : 0,
                                      "overlapProportion" : 0,
                                      "movement" : -1,
                                      "springDamping" : 5.0,
                                      "springStiffness" : 50.0,
                                      "bounceBounciness" : 0.45
                                    }
                                  
                                  },
                                  "metadata" : {
                                    "default-behavior-in-style" : "reveal",
                                    "default-behavior-out-style" : "reveal"
                                  }
                                }
                            ],
                            "start" : 1,
                            "duration" : 56,
                            "mediaStart" : 1,
                            "mediaDuration" : 56,
                            "scalar" : 1,
                            "metadata" : {
                              "WinSubProjectDisplayName" : "",
                              "clipSpeedAttribute" : false,
                              "default-HAlign" : "left",
                              "default-VAlign" : "center",
                              "default-text-attributes" : "[{\"name\":\"fontSize\",\"rangeEnd\":18,\"rangeStart\":0,\"value\":88,\"valueType\":\"double\"},{\"name\":\"fgColor\",\"rangeEnd\":18,\"rangeStart\":0,\"value\":\"(255,255,255,255)\",\"valueType\":\"color\"},{\"name\":\"fontName\",\"rangeEnd\":18,\"rangeStart\":0,\"value\":\"Montserrat\",\"valueType\":\"string\"},{\"name\":\"fontItalic\",\"rangeEnd\":18,\"rangeStart\":0,\"value\":0,\"valueType\":\"int\"},{\"name\":\"underline\",\"rangeEnd\":18,\"rangeStart\":0,\"value\":0,\"valueType\":\"int\"},{\"name\":\"fontWeight\",\"rangeEnd\":18,\"rangeStart\":0,\"value\":100,\"valueType\":\"int\"},{\"name\":\"strikethrough\",\"rangeEnd\":18,\"rangeStart\":0,\"value\":0,\"valueType\":\"int\"}]",
                              "default-translation0" : -436.428571428523,
                              "default-translation1" : -318.000000000136
                            },
                            "animationTracks" : {

                            }
                          }
                        ],
                          "ident" : "",
                          "audioMuted" : false,
                          "videoHidden" : false,
                          "metadata" : {
                            "IsLocked" : "False",
                            "WinTrackHeight" : "1.17099070449647e-311"
                          }
                      }
                    ],
                    "attributes" : {
                      "ident" : "basictext-01",
                      "gain" : 1.0,
                      "mixToMono" : false
                    },
                    "effects" : [

                    ],
                    "start" : 344,
                    "duration" : 56,
                    "mediaStart" : 1.0,
                    "mediaDuration" : 56.0,
                    "scalar" : 1,
                    "metadata" : {
                      "IsGroupExpanded" : "False",
                      "WinSubProjectDisplayName" : ""
                    },
                    "animationTracks" : {

                    }
                  },
                  {
                    "id" : 34,
                    "_type" : "Group",
                    "parameters" : {
                      "volume" : 1.0
                    },
                    "tracks" : [
                      {
                        "trackIndex" : 0,
                        "medias" : [
                        ],
                          "ident" : "",
                          "audioMuted" : false,
                          "videoHidden" : false,
                          "metadata" : {
                            "IsLocked" : "False",
                            "WinTrackHeight" : "0"
                          }
                      },
                      {
                        "trackIndex" : 1,
                        "medias" : [
                          {
                            "id" : 35,
                            "_type" : "Callout",
                            "def" : {
                              "kind" : "remix",
                              "shape" : "text",
                              "style" : "basic",
                              "height" : 125.999999999979,
                              "width" : 935.930033222665,
                              "word-wrap" : 1.0,
                              "horizontal-alignment" : "left",
                              "text" : "> me",
                              "vertical-alignment" : "center",
                              "font" : {
                                "color-blue" : 1.0,
                                "color-green" : 1.0,
                                "color-red" : 1.0,
                                "size" : 96.0,
                                "tracking" : 0.0,
                                "name" : "Montserrat",
                                "weight" : "Regular"
                              },
                              "textAttributes" : {
                                "type" : "textAttributeList",
                                "keyframes" : [
                                  {
                                    "time" : 0,
                                    "value" : [{"name":"fontName","rangeEnd":4,"rangeStart":0,"value":"OCR A Extended","valueType":"string"},{"name":"strikethrough","rangeEnd":4,"rangeStart":0,"value":0,"valueType":"int"},{"name":"fontSize","rangeEnd":4,"rangeStart":0,"value":80,"valueType":"double"},{"name":"fontItalic","rangeEnd":4,"rangeStart":0,"value":0,"valueType":"int"},{"name":"fontWeight","rangeEnd":4,"rangeStart":0,"value":100,"valueType":"int"},{"name":"underline","rangeEnd":4,"rangeStart":0,"value":0,"valueType":"int"},{"name":"fgColor","rangeEnd":4,"rangeStart":0,"value":"(27,157,44,255)","valueType":"color"}],
                                    "duration" : 0
                                  }
                                ]
                              }
                            },
                            "attributes" : {
                              "autoRotateText" : true
                            },
                            "parameters" : {
                              "translation0" : 0.0349833886875217,
                              "translation1" : -63.0000000000339
                            },
                            "effects" : [
                                {
                                  "effectName" : "DropShadow",
                                  "parameters" : {
                                    "angle" : {
                                      "type" : "double",
                                      "defaultValue" : 5.49778714378214,
                                      "valueBounds" : {
                                        "minValue" : 0.0,
                                        "maxValue" : 0.0,
                                        "defaultValue" : 5.49778714378214
                                      },
                                      "uiHints" : {
                                        "userInterfaceType" : 0,
                                        "unitType" : 0
                                      }
                                    },
                                    "blur" : {
                                      "type" : "double",
                                      "defaultValue" : 10.0,
                                      "valueBounds" : {
                                        "minValue" : 0.0,
                                        "maxValue" : 50.0,
                                        "defaultValue" : 10.0
                                      },
                                      "uiHints" : {
                                        "userInterfaceType" : 0,
                                        "unitType" : 0
                                      }
                                    },
                                    "color-alpha" : {
                                      "type" : "double",
                                      "defaultValue" : 1.0,
                                      "valueBounds" : {
                                        "minValue" : 0.0,
                                        "maxValue" : 1.0,
                                        "defaultValue" : 1.0
                                      },
                                      "uiHints" : {
                                        "userInterfaceType" : 0,
                                        "unitType" : 0
                                      }
                                    },
                                    "color-blue" : {
                                      "type" : "double",
                                      "defaultValue" : 0.1216,
                                      "valueBounds" : {
                                        "minValue" : 0.0,
                                        "maxValue" : 1.0,
                                        "defaultValue" : 0.1216
                                      },
                                      "uiHints" : {
                                        "userInterfaceType" : 0,
                                        "unitType" : 0
                                      }
                                    },
                                    "color-green" : {
                                      "type" : "double",
                                      "defaultValue" : 0.1216,
                                      "valueBounds" : {
                                        "minValue" : 0.0,
                                        "maxValue" : 1.0,
                                        "defaultValue" : 0.1216
                                      },
                                      "uiHints" : {
                                        "userInterfaceType" : 0,
                                        "unitType" : 0
                                      }
                                    },
                                    "color-red" : {
                                      "type" : "double",
                                      "defaultValue" : 0.1216,
                                      "valueBounds" : {
                                        "minValue" : 0.0,
                                        "maxValue" : 1.0,
                                        "defaultValue" : 0.1216
                                      },
                                      "uiHints" : {
                                        "userInterfaceType" : 0,
                                        "unitType" : 0
                                      }
                                    },
                                    "enabled" : {
                                      "type" : "int",
                                      "valueBounds" : {
                                        "minValue" : 0,
                                        "maxValue" : 1,
                                        "defaultValue" : 1
                                      },
                                      "uiHints" : {
                                        "userInterfaceType" : 0,
                                        "unitType" : 0
                                      },
                                      "keyframes" : [
                                        {
                                          "time" : 0,
                                          "value" : 1,
                                          "duration" : 0
                                        }
                                      ]
                                    },
                                    "offset" : {
                                      "type" : "double",
                                      "defaultValue" : 10.0,
                                      "valueBounds" : {
                                        "minValue" : 0.0,
                                        "maxValue" : 250.0,
                                        "defaultValue" : 10.0
                                      },
                                      "uiHints" : {
                                        "userInterfaceType" : 0,
                                        "unitType" : 0
                                      }
                                    },
                                    "opacity" : {
                                      "type" : "double",
                                      "defaultValue" : 0.4,
                                      "valueBounds" : {
                                        "minValue" : 0.0,
                                        "maxValue" : 1.0,
                                        "defaultValue" : 0.4
                                      },
                                      "uiHints" : {
                                        "userInterfaceType" : 0,
                                        "unitType" : 0
                                      }
                                    }
                                  }
                                },
                                {
                                  "_type" : "GenericBehaviorEffect",
                                  "effectName" : "reveal",
                                  "start" : 1,
                                  "duration" : 78                                ,
                                  "in" : {
                                    "attributes" : {
                                      "name" : "none",
                                      "type" : 1,
                                      "characterOrder" : 6,
                                      "offsetBetweenCharacters" : 0,
                                      "suggestedDurationPerCharacter" : 0,
                                      "overlapProportion" : 0,
                                      "movement" : -1,
                                      "springDamping" : 5.0,
                                      "springStiffness" : 50.0,
                                      "bounceBounciness" : 0.45
                                    }
                                  
                                  },
                                  "center" : {
                                    "attributes" : {
                                      "name" : "none",
                                      "type" : 1,
                                      "characterOrder" : 6,
                                      "offsetBetweenCharacters" : 0,
                                      "secondsPerLoop" : 1,
                                      "numberOfLoops" : -1,
                                      "delayBetweenLoops" : 0,
                                      "offsetBetweenCharacters" : 0
                                    }
                                  
                                  },
                                  "out" : {
                                    "attributes" : {
                                      "name" : "none",
                                      "type" : 1,
                                      "characterOrder" : 6,
                                      "offsetBetweenCharacters" : 0,
                                      "suggestedDurationPerCharacter" : 0,
                                      "overlapProportion" : 0,
                                      "movement" : -1,
                                      "springDamping" : 5.0,
                                      "springStiffness" : 50.0,
                                      "bounceBounciness" : 0.45
                                    }
                                  
                                  },
                                  "metadata" : {
                                    "default-behavior-in-style" : "reveal",
                                    "default-behavior-out-style" : "reveal"
                                  }
                                }
                            ],
                            "start" : 1,
                            "duration" : 78,
                            "mediaStart" : 1,
                            "mediaDuration" : 78,
                            "scalar" : 1,
                            "metadata" : {
                              "WinSubProjectDisplayName" : "",
                              "clipSpeedAttribute" : false,
                              "default-HAlign" : "left",
                              "default-VAlign" : "center",
                              "default-text-attributes" : "[{\"name\":\"fontSize\",\"rangeEnd\":18,\"rangeStart\":0,\"value\":88,\"valueType\":\"double\"},{\"name\":\"fgColor\",\"rangeEnd\":18,\"rangeStart\":0,\"value\":\"(255,255,255,255)\",\"valueType\":\"color\"},{\"name\":\"fontName\",\"rangeEnd\":18,\"rangeStart\":0,\"value\":\"Montserrat\",\"valueType\":\"string\"},{\"name\":\"fontItalic\",\"rangeEnd\":18,\"rangeStart\":0,\"value\":0,\"valueType\":\"int\"},{\"name\":\"underline\",\"rangeEnd\":18,\"rangeStart\":0,\"value\":0,\"valueType\":\"int\"},{\"name\":\"fontWeight\",\"rangeEnd\":18,\"rangeStart\":0,\"value\":100,\"valueType\":\"int\"},{\"name\":\"strikethrough\",\"rangeEnd\":18,\"rangeStart\":0,\"value\":0,\"valueType\":\"int\"}]",
                              "default-translation0" : -436.428571428523,
                              "default-translation1" : -318.000000000136
                            },
                            "animationTracks" : {

                            }
                          }
                        ],
                          "ident" : "",
                          "audioMuted" : false,
                          "videoHidden" : false,
                          "metadata" : {
                            "IsLocked" : "False",
                            "WinTrackHeight" : "1.17099070449647e-311"
                          }
                      }
                    ],
                    "attributes" : {
                      "ident" : "basictext-01",
                      "gain" : 1.0,
                      "mixToMono" : false
                    },
                    "effects" : [

                    ],
                    "start" : 449,
                    "duration" : 78,
                    "mediaStart" : 1.0,
                    "mediaDuration" : 78.0,
                    "scalar" : 1,
                    "metadata" : {
                      "IsGroupExpanded" : "False",
                      "WinSubProjectDisplayName" : ""
                    },
                    "animationTracks" : {

                    }
                  },
                  {
                    "id" : 36,
                    "_type" : "Group",
                    "parameters" : {
                      "volume" : 1.0
                    },
                    "tracks" : [
                      {
                        "trackIndex" : 0,
                        "medias" : [
                        ],
                          "ident" : "",
                          "audioMuted" : false,
                          "videoHidden" : false,
                          "metadata" : {
                            "IsLocked" : "False",
                            "WinTrackHeight" : "0"
                          }
                      },
                      {
                        "trackIndex" : 1,
                        "medias" : [
                          {
                            "id" : 37,
                            "_type" : "Callout",
                            "def" : {
                              "kind" : "remix",
                              "shape" : "text",
                              "style" : "basic",
                              "height" : 125.999999999979,
                              "width" : 935.930033222665,
                              "word-wrap" : 1.0,
                              "horizontal-alignment" : "left",
                              "text" : "> here",
                              "vertical-alignment" : "center",
                              "font" : {
                                "color-blue" : 1.0,
                                "color-green" : 1.0,
                                "color-red" : 1.0,
                                "size" : 96.0,
                                "tracking" : 0.0,
                                "name" : "Montserrat",
                                "weight" : "Regular"
                              },
                              "textAttributes" : {
                                "type" : "textAttributeList",
                                "keyframes" : [
                                  {
                                    "time" : 0,
                                    "value" : [{"name":"strikethrough","rangeEnd":6,"rangeStart":0,"value":0,"valueType":"int"},{"name":"underline","rangeEnd":6,"rangeStart":0,"value":0,"valueType":"int"},{"name":"fgColor","rangeEnd":6,"rangeStart":0,"value":"(27,157,44,255)","valueType":"color"},{"name":"fontWeight","rangeEnd":6,"rangeStart":0,"value":100,"valueType":"int"},{"name":"fontSize","rangeEnd":6,"rangeStart":0,"value":80,"valueType":"double"},{"name":"fontItalic","rangeEnd":6,"rangeStart":0,"value":0,"valueType":"int"},{"name":"fontName","rangeEnd":6,"rangeStart":0,"value":"OCR A Extended","valueType":"string"}],
                                    "duration" : 0
                                  }
                                ]
                              }
                            },
                            "attributes" : {
                              "autoRotateText" : true
                            },
                            "parameters" : {
                              "translation0" : 0.0349833887974569,
                              "translation1" : -62.9999999999067
                            },
                            "effects" : [
                                {
                                  "effectName" : "DropShadow",
                                  "parameters" : {
                                    "angle" : {
                                      "type" : "double",
                                      "defaultValue" : 5.49778714378214,
                                      "valueBounds" : {
                                        "minValue" : 0.0,
                                        "maxValue" : 0.0,
                                        "defaultValue" : 5.49778714378214
                                      },
                                      "uiHints" : {
                                        "userInterfaceType" : 0,
                                        "unitType" : 0
                                      }
                                    },
                                    "blur" : {
                                      "type" : "double",
                                      "defaultValue" : 10.0,
                                      "valueBounds" : {
                                        "minValue" : 0.0,
                                        "maxValue" : 50.0,
                                        "defaultValue" : 10.0
                                      },
                                      "uiHints" : {
                                        "userInterfaceType" : 0,
                                        "unitType" : 0
                                      }
                                    },
                                    "color-alpha" : {
                                      "type" : "double",
                                      "defaultValue" : 1.0,
                                      "valueBounds" : {
                                        "minValue" : 0.0,
                                        "maxValue" : 1.0,
                                        "defaultValue" : 1.0
                                      },
                                      "uiHints" : {
                                        "userInterfaceType" : 0,
                                        "unitType" : 0
                                      }
                                    },
                                    "color-blue" : {
                                      "type" : "double",
                                      "defaultValue" : 0.1216,
                                      "valueBounds" : {
                                        "minValue" : 0.0,
                                        "maxValue" : 1.0,
                                        "defaultValue" : 0.1216
                                      },
                                      "uiHints" : {
                                        "userInterfaceType" : 0,
                                        "unitType" : 0
                                      }
                                    },
                                    "color-green" : {
                                      "type" : "double",
                                      "defaultValue" : 0.1216,
                                      "valueBounds" : {
                                        "minValue" : 0.0,
                                        "maxValue" : 1.0,
                                        "defaultValue" : 0.1216
                                      },
                                      "uiHints" : {
                                        "userInterfaceType" : 0,
                                        "unitType" : 0
                                      }
                                    },
                                    "color-red" : {
                                      "type" : "double",
                                      "defaultValue" : 0.1216,
                                      "valueBounds" : {
                                        "minValue" : 0.0,
                                        "maxValue" : 1.0,
                                        "defaultValue" : 0.1216
                                      },
                                      "uiHints" : {
                                        "userInterfaceType" : 0,
                                        "unitType" : 0
                                      }
                                    },
                                    "enabled" : {
                                      "type" : "int",
                                      "valueBounds" : {
                                        "minValue" : 0,
                                        "maxValue" : 1,
                                        "defaultValue" : 1
                                      },
                                      "uiHints" : {
                                        "userInterfaceType" : 0,
                                        "unitType" : 0
                                      },
                                      "keyframes" : [
                                        {
                                          "time" : 0,
                                          "value" : 1,
                                          "duration" : 0
                                        }
                                      ]
                                    },
                                    "offset" : {
                                      "type" : "double",
                                      "defaultValue" : 10.0,
                                      "valueBounds" : {
                                        "minValue" : 0.0,
                                        "maxValue" : 250.0,
                                        "defaultValue" : 10.0
                                      },
                                      "uiHints" : {
                                        "userInterfaceType" : 0,
                                        "unitType" : 0
                                      }
                                    },
                                    "opacity" : {
                                      "type" : "double",
                                      "defaultValue" : 0.4,
                                      "valueBounds" : {
                                        "minValue" : 0.0,
                                        "maxValue" : 1.0,
                                        "defaultValue" : 0.4
                                      },
                                      "uiHints" : {
                                        "userInterfaceType" : 0,
                                        "unitType" : 0
                                      }
                                    }
                                  }
                                },
                                {
                                  "_type" : "GenericBehaviorEffect",
                                  "effectName" : "reveal",
                                  "start" : 1,
                                  "duration" : 78                                ,
                                  "in" : {
                                    "attributes" : {
                                      "name" : "none",
                                      "type" : 1,
                                      "characterOrder" : 6,
                                      "offsetBetweenCharacters" : 0,
                                      "suggestedDurationPerCharacter" : 0,
                                      "overlapProportion" : 0,
                                      "movement" : -1,
                                      "springDamping" : 5.0,
                                      "springStiffness" : 50.0,
                                      "bounceBounciness" : 0.45
                                    }
                                  
                                  },
                                  "center" : {
                                    "attributes" : {
                                      "name" : "none",
                                      "type" : 1,
                                      "characterOrder" : 6,
                                      "offsetBetweenCharacters" : 0,
                                      "secondsPerLoop" : 1,
                                      "numberOfLoops" : -1,
                                      "delayBetweenLoops" : 0,
                                      "offsetBetweenCharacters" : 0
                                    }
                                  
                                  },
                                  "out" : {
                                    "attributes" : {
                                      "name" : "none",
                                      "type" : 1,
                                      "characterOrder" : 6,
                                      "offsetBetweenCharacters" : 0,
                                      "suggestedDurationPerCharacter" : 0,
                                      "overlapProportion" : 0,
                                      "movement" : -1,
                                      "springDamping" : 5.0,
                                      "springStiffness" : 50.0,
                                      "bounceBounciness" : 0.45
                                    }
                                  
                                  },
                                  "metadata" : {
                                    "default-behavior-in-style" : "reveal",
                                    "default-behavior-out-style" : "reveal"
                                  }
                                }
                            ],
                            "start" : 1,
                            "duration" : 78,
                            "mediaStart" : 1,
                            "mediaDuration" : 78,
                            "scalar" : 1,
                            "metadata" : {
                              "WinSubProjectDisplayName" : "",
                              "clipSpeedAttribute" : false,
                              "default-HAlign" : "left",
                              "default-VAlign" : "center",
                              "default-text-attributes" : "[{\"name\":\"fontSize\",\"rangeEnd\":18,\"rangeStart\":0,\"value\":88,\"valueType\":\"double\"},{\"name\":\"fgColor\",\"rangeEnd\":18,\"rangeStart\":0,\"value\":\"(255,255,255,255)\",\"valueType\":\"color\"},{\"name\":\"fontName\",\"rangeEnd\":18,\"rangeStart\":0,\"value\":\"Montserrat\",\"valueType\":\"string\"},{\"name\":\"fontItalic\",\"rangeEnd\":18,\"rangeStart\":0,\"value\":0,\"valueType\":\"int\"},{\"name\":\"underline\",\"rangeEnd\":18,\"rangeStart\":0,\"value\":0,\"valueType\":\"int\"},{\"name\":\"fontWeight\",\"rangeEnd\":18,\"rangeStart\":0,\"value\":100,\"valueType\":\"int\"},{\"name\":\"strikethrough\",\"rangeEnd\":18,\"rangeStart\":0,\"value\":0,\"valueType\":\"int\"}]",
                              "default-translation0" : -436.428571428523,
                              "default-translation1" : -318.000000000136
                            },
                            "animationTracks" : {

                            }
                          }
                        ],
                          "ident" : "",
                          "audioMuted" : false,
                          "videoHidden" : false,
                          "metadata" : {
                            "IsLocked" : "False",
                            "WinTrackHeight" : "1.17099070449647e-311"
                          }
                      }
                    ],
                    "attributes" : {
                      "ident" : "basictext-01",
                      "gain" : 1.0,
                      "mixToMono" : false
                    },
                    "effects" : [

                    ],
                    "start" : 576,
                    "duration" : 78,
                    "mediaStart" : 1.0,
                    "mediaDuration" : 78.0,
                    "scalar" : 1,
                    "metadata" : {
                      "IsGroupExpanded" : "False",
                      "WinSubProjectDisplayName" : ""
                    },
                    "animationTracks" : {

                    }
                  },
                  {
                    "id" : 38,
                    "_type" : "Group",
                    "parameters" : {
                      "volume" : 1.0
                    },
                    "tracks" : [
                      {
                        "trackIndex" : 0,
                        "medias" : [
                        ],
                          "ident" : "",
                          "audioMuted" : false,
                          "videoHidden" : false,
                          "metadata" : {
                            "IsLocked" : "False",
                            "WinTrackHeight" : "0"
                          }
                      },
                      {
                        "trackIndex" : 1,
                        "medias" : [
                          {
                            "id" : 39,
                            "_type" : "Callout",
                            "def" : {
                              "kind" : "remix",
                              "shape" : "text",
                              "style" : "basic",
                              "height" : 125.999999999979,
                              "width" : 935.930033222665,
                              "word-wrap" : 1.0,
                              "horizontal-alignment" : "left",
                              "text" : "> who are you?",
                              "vertical-alignment" : "center",
                              "font" : {
                                "color-blue" : 1.0,
                                "color-green" : 1.0,
                                "color-red" : 1.0,
                                "size" : 96.0,
                                "tracking" : 0.0,
                                "name" : "Montserrat",
                                "weight" : "Regular"
                              },
                              "textAttributes" : {
                                "type" : "textAttributeList",
                                "keyframes" : [
                                  {
                                    "time" : 0,
                                    "value" : [{"name":"fgColor","rangeEnd":14,"rangeStart":0,"value":"(255,255,255,255)","valueType":"color"},{"name":"fontItalic","rangeEnd":14,"rangeStart":0,"value":0,"valueType":"int"},{"name":"fontSize","rangeEnd":14,"rangeStart":0,"value":80,"valueType":"double"},{"name":"fontName","rangeEnd":14,"rangeStart":0,"value":"OCR A Extended","valueType":"string"},{"name":"fontWeight","rangeEnd":14,"rangeStart":0,"value":100,"valueType":"int"},{"name":"strikethrough","rangeEnd":14,"rangeStart":0,"value":0,"valueType":"int"},{"name":"underline","rangeEnd":14,"rangeStart":0,"value":0,"valueType":"int"}],
                                    "duration" : 0
                                  }
                                ]
                              }
                            },
                            "attributes" : {
                              "autoRotateText" : true
                            },
                            "parameters" : {
                              "translation0" : 0.034983388650744,
                              "translation1" : -62.9999999999199
                            },
                            "effects" : [
                                {
                                  "effectName" : "DropShadow",
                                  "parameters" : {
                                    "angle" : {
                                      "type" : "double",
                                      "defaultValue" : 5.49778714378214,
                                      "valueBounds" : {
                                        "minValue" : 0.0,
                                        "maxValue" : 0.0,
                                        "defaultValue" : 5.49778714378214
                                      },
                                      "uiHints" : {
                                        "userInterfaceType" : 0,
                                        "unitType" : 0
                                      }
                                    },
                                    "blur" : {
                                      "type" : "double",
                                      "defaultValue" : 10.0,
                                      "valueBounds" : {
                                        "minValue" : 0.0,
                                        "maxValue" : 50.0,
                                        "defaultValue" : 10.0
                                      },
                                      "uiHints" : {
                                        "userInterfaceType" : 0,
                                        "unitType" : 0
                                      }
                                    },
                                    "color-alpha" : {
                                      "type" : "double",
                                      "defaultValue" : 1.0,
                                      "valueBounds" : {
                                        "minValue" : 0.0,
                                        "maxValue" : 1.0,
                                        "defaultValue" : 1.0
                                      },
                                      "uiHints" : {
                                        "userInterfaceType" : 0,
                                        "unitType" : 0
                                      }
                                    },
                                    "color-blue" : {
                                      "type" : "double",
                                      "defaultValue" : 0.1216,
                                      "valueBounds" : {
                                        "minValue" : 0.0,
                                        "maxValue" : 1.0,
                                        "defaultValue" : 0.1216
                                      },
                                      "uiHints" : {
                                        "userInterfaceType" : 0,
                                        "unitType" : 0
                                      }
                                    },
                                    "color-green" : {
                                      "type" : "double",
                                      "defaultValue" : 0.1216,
                                      "valueBounds" : {
                                        "minValue" : 0.0,
                                        "maxValue" : 1.0,
                                        "defaultValue" : 0.1216
                                      },
                                      "uiHints" : {
                                        "userInterfaceType" : 0,
                                        "unitType" : 0
                                      }
                                    },
                                    "color-red" : {
                                      "type" : "double",
                                      "defaultValue" : 0.1216,
                                      "valueBounds" : {
                                        "minValue" : 0.0,
                                        "maxValue" : 1.0,
                                        "defaultValue" : 0.1216
                                      },
                                      "uiHints" : {
                                        "userInterfaceType" : 0,
                                        "unitType" : 0
                                      }
                                    },
                                    "enabled" : {
                                      "type" : "int",
                                      "valueBounds" : {
                                        "minValue" : 0,
                                        "maxValue" : 1,
                                        "defaultValue" : 1
                                      },
                                      "uiHints" : {
                                        "userInterfaceType" : 0,
                                        "unitType" : 0
                                      },
                                      "keyframes" : [
                                        {
                                          "time" : 0,
                                          "value" : 1,
                                          "duration" : 0
                                        }
                                      ]
                                    },
                                    "offset" : {
                                      "type" : "double",
                                      "defaultValue" : 10.0,
                                      "valueBounds" : {
                                        "minValue" : 0.0,
                                        "maxValue" : 250.0,
                                        "defaultValue" : 10.0
                                      },
                                      "uiHints" : {
                                        "userInterfaceType" : 0,
                                        "unitType" : 0
                                      }
                                    },
                                    "opacity" : {
                                      "type" : "double",
                                      "defaultValue" : 0.4,
                                      "valueBounds" : {
                                        "minValue" : 0.0,
                                        "maxValue" : 1.0,
                                        "defaultValue" : 0.4
                                      },
                                      "uiHints" : {
                                        "userInterfaceType" : 0,
                                        "unitType" : 0
                                      }
                                    }
                                  }
                                },
                                {
                                  "_type" : "GenericBehaviorEffect",
                                  "effectName" : "reveal",
                                  "start" : 1,
                                  "duration" : 78                                ,
                                  "in" : {
                                    "attributes" : {
                                      "name" : "none",
                                      "type" : 1,
                                      "characterOrder" : 6,
                                      "offsetBetweenCharacters" : 0,
                                      "suggestedDurationPerCharacter" : 0,
                                      "overlapProportion" : 0,
                                      "movement" : -1,
                                      "springDamping" : 5.0,
                                      "springStiffness" : 50.0,
                                      "bounceBounciness" : 0.45
                                    }
                                  
                                  },
                                  "center" : {
                                    "attributes" : {
                                      "name" : "none",
                                      "type" : 1,
                                      "characterOrder" : 6,
                                      "offsetBetweenCharacters" : 0,
                                      "secondsPerLoop" : 1,
                                      "numberOfLoops" : -1,
                                      "delayBetweenLoops" : 0,
                                      "offsetBetweenCharacters" : 0
                                    }
                                  
                                  },
                                  "out" : {
                                    "attributes" : {
                                      "name" : "none",
                                      "type" : 1,
                                      "characterOrder" : 6,
                                      "offsetBetweenCharacters" : 0,
                                      "suggestedDurationPerCharacter" : 0,
                                      "overlapProportion" : 0,
                                      "movement" : -1,
                                      "springDamping" : 5.0,
                                      "springStiffness" : 50.0,
                                      "bounceBounciness" : 0.45
                                    }
                                  
                                  },
                                  "metadata" : {
                                    "default-behavior-in-style" : "reveal",
                                    "default-behavior-out-style" : "reveal"
                                  }
                                }
                            ],
                            "start" : 1,
                            "duration" : 78,
                            "mediaStart" : 1,
                            "mediaDuration" : 78,
                            "scalar" : 1,
                            "metadata" : {
                              "WinSubProjectDisplayName" : "",
                              "clipSpeedAttribute" : false,
                              "default-HAlign" : "left",
                              "default-VAlign" : "center",
                              "default-text-attributes" : "[{\"name\":\"fontSize\",\"rangeEnd\":18,\"rangeStart\":0,\"value\":88,\"valueType\":\"double\"},{\"name\":\"fgColor\",\"rangeEnd\":18,\"rangeStart\":0,\"value\":\"(255,255,255,255)\",\"valueType\":\"color\"},{\"name\":\"fontName\",\"rangeEnd\":18,\"rangeStart\":0,\"value\":\"Montserrat\",\"valueType\":\"string\"},{\"name\":\"fontItalic\",\"rangeEnd\":18,\"rangeStart\":0,\"value\":0,\"valueType\":\"int\"},{\"name\":\"underline\",\"rangeEnd\":18,\"rangeStart\":0,\"value\":0,\"valueType\":\"int\"},{\"name\":\"fontWeight\",\"rangeEnd\":18,\"rangeStart\":0,\"value\":100,\"valueType\":\"int\"},{\"name\":\"strikethrough\",\"rangeEnd\":18,\"rangeStart\":0,\"value\":0,\"valueType\":\"int\"}]",
                              "default-translation0" : -436.428571428523,
                              "default-translation1" : -318.000000000136
                            },
                            "animationTracks" : {

                            }
                          }
                        ],
                          "ident" : "",
                          "audioMuted" : false,
                          "videoHidden" : false,
                          "metadata" : {
                            "IsLocked" : "False",
                            "WinTrackHeight" : "1.17099070449647e-311"
                          }
                      }
                    ],
                    "attributes" : {
                      "ident" : "basictext-01",
                      "gain" : 1.0,
                      "mixToMono" : false
                    },
                    "effects" : [

                    ],
                    "start" : 712,
                    "duration" : 78,
                    "mediaStart" : 1.0,
                    "mediaDuration" : 78.0,
                    "scalar" : 1,
                    "metadata" : {
                      "IsGroupExpanded" : "False",
                      "WinSubProjectDisplayName" : ""
                    },
                    "animationTracks" : {

                    }
                  },
                  {
                    "id" : 40,
                    "_type" : "Group",
                    "parameters" : {
                      "volume" : 1.0
                    },
                    "tracks" : [
                      {
                        "trackIndex" : 0,
                        "medias" : [
                        ],
                          "ident" : "",
                          "audioMuted" : false,
                          "videoHidden" : false,
                          "metadata" : {
                            "IsLocked" : "False",
                            "WinTrackHeight" : "0"
                          }
                      },
                      {
                        "trackIndex" : 1,
                        "medias" : [
                          {
                            "id" : 41,
                            "_type" : "Callout",
                            "def" : {
                              "kind" : "remix",
                              "shape" : "text",
                              "style" : "basic",
                              "height" : 125.999999999979,
                              "width" : 935.930033222665,
                              "word-wrap" : 1.0,
                              "horizontal-alignment" : "left",
                              "text" : "> Who am I?",
                              "vertical-alignment" : "center",
                              "font" : {
                                "color-blue" : 1.0,
                                "color-green" : 1.0,
                                "color-red" : 1.0,
                                "size" : 96.0,
                                "tracking" : 0.0,
                                "name" : "Montserrat",
                                "weight" : "Regular"
                              },
                              "textAttributes" : {
                                "type" : "textAttributeList",
                                "keyframes" : [
                                  {
                                    "time" : 0,
                                    "value" : [{"name":"fontItalic","rangeEnd":11,"rangeStart":0,"value":0,"valueType":"int"},{"name":"fontWeight","rangeEnd":11,"rangeStart":0,"value":100,"valueType":"int"},{"name":"fontSize","rangeEnd":11,"rangeStart":0,"value":80,"valueType":"double"},{"name":"fgColor","rangeEnd":11,"rangeStart":0,"value":"(255,255,255,255)","valueType":"color"},{"name":"strikethrough","rangeEnd":11,"rangeStart":0,"value":0,"valueType":"int"},{"name":"fontName","rangeEnd":11,"rangeStart":0,"value":"OCR A Extended","valueType":"string"},{"name":"underline","rangeEnd":11,"rangeStart":0,"value":0,"valueType":"int"}],
                                    "duration" : 0
                                  }
                                ]
                              }
                            },
                            "attributes" : {
                              "autoRotateText" : true
                            },
                            "parameters" : {
                              "translation0" : 0.0349833886847364,
                              "translation1" : -63.0000000000186
                            },
                            "effects" : [
                                {
                                  "effectName" : "DropShadow",
                                  "parameters" : {
                                    "angle" : {
                                      "type" : "double",
                                      "defaultValue" : 5.49778714378214,
                                      "valueBounds" : {
                                        "minValue" : 0.0,
                                        "maxValue" : 0.0,
                                        "defaultValue" : 5.49778714378214
                                      },
                                      "uiHints" : {
                                        "userInterfaceType" : 0,
                                        "unitType" : 0
                                      }
                                    },
                                    "blur" : {
                                      "type" : "double",
                                      "defaultValue" : 10.0,
                                      "valueBounds" : {
                                        "minValue" : 0.0,
                                        "maxValue" : 50.0,
                                        "defaultValue" : 10.0
                                      },
                                      "uiHints" : {
                                        "userInterfaceType" : 0,
                                        "unitType" : 0
                                      }
                                    },
                                    "color-alpha" : {
                                      "type" : "double",
                                      "defaultValue" : 1.0,
                                      "valueBounds" : {
                                        "minValue" : 0.0,
                                        "maxValue" : 1.0,
                                        "defaultValue" : 1.0
                                      },
                                      "uiHints" : {
                                        "userInterfaceType" : 0,
                                        "unitType" : 0
                                      }
                                    },
                                    "color-blue" : {
                                      "type" : "double",
                                      "defaultValue" : 0.1216,
                                      "valueBounds" : {
                                        "minValue" : 0.0,
                                        "maxValue" : 1.0,
                                        "defaultValue" : 0.1216
                                      },
                                      "uiHints" : {
                                        "userInterfaceType" : 0,
                                        "unitType" : 0
                                      }
                                    },
                                    "color-green" : {
                                      "type" : "double",
                                      "defaultValue" : 0.1216,
                                      "valueBounds" : {
                                        "minValue" : 0.0,
                                        "maxValue" : 1.0,
                                        "defaultValue" : 0.1216
                                      },
                                      "uiHints" : {
                                        "userInterfaceType" : 0,
                                        "unitType" : 0
                                      }
                                    },
                                    "color-red" : {
                                      "type" : "double",
                                      "defaultValue" : 0.1216,
                                      "valueBounds" : {
                                        "minValue" : 0.0,
                                        "maxValue" : 1.0,
                                        "defaultValue" : 0.1216
                                      },
                                      "uiHints" : {
                                        "userInterfaceType" : 0,
                                        "unitType" : 0
                                      }
                                    },
                                    "enabled" : {
                                      "type" : "int",
                                      "valueBounds" : {
                                        "minValue" : 0,
                                        "maxValue" : 1,
                                        "defaultValue" : 1
                                      },
                                      "uiHints" : {
                                        "userInterfaceType" : 0,
                                        "unitType" : 0
                                      },
                                      "keyframes" : [
                                        {
                                          "time" : 0,
                                          "value" : 1,
                                          "duration" : 0
                                        }
                                      ]
                                    },
                                    "offset" : {
                                      "type" : "double",
                                      "defaultValue" : 10.0,
                                      "valueBounds" : {
                                        "minValue" : 0.0,
                                        "maxValue" : 250.0,
                                        "defaultValue" : 10.0
                                      },
                                      "uiHints" : {
                                        "userInterfaceType" : 0,
                                        "unitType" : 0
                                      }
                                    },
                                    "opacity" : {
                                      "type" : "double",
                                      "defaultValue" : 0.4,
                                      "valueBounds" : {
                                        "minValue" : 0.0,
                                        "maxValue" : 1.0,
                                        "defaultValue" : 0.4
                                      },
                                      "uiHints" : {
                                        "userInterfaceType" : 0,
                                        "unitType" : 0
                                      }
                                    }
                                  }
                                },
                                {
                                  "_type" : "GenericBehaviorEffect",
                                  "effectName" : "reveal",
                                  "start" : 1,
                                  "duration" : 78                                ,
                                  "in" : {
                                    "attributes" : {
                                      "name" : "none",
                                      "type" : 1,
                                      "characterOrder" : 6,
                                      "offsetBetweenCharacters" : 0,
                                      "suggestedDurationPerCharacter" : 0,
                                      "overlapProportion" : 0,
                                      "movement" : -1,
                                      "springDamping" : 5.0,
                                      "springStiffness" : 50.0,
                                      "bounceBounciness" : 0.45
                                    }
                                  
                                  },
                                  "center" : {
                                    "attributes" : {
                                      "name" : "none",
                                      "type" : 1,
                                      "characterOrder" : 6,
                                      "offsetBetweenCharacters" : 0,
                                      "secondsPerLoop" : 1,
                                      "numberOfLoops" : -1,
                                      "delayBetweenLoops" : 0,
                                      "offsetBetweenCharacters" : 0
                                    }
                                  
                                  },
                                  "out" : {
                                    "attributes" : {
                                      "name" : "none",
                                      "type" : 1,
                                      "characterOrder" : 6,
                                      "offsetBetweenCharacters" : 0,
                                      "suggestedDurationPerCharacter" : 0,
                                      "overlapProportion" : 0,
                                      "movement" : -1,
                                      "springDamping" : 5.0,
                                      "springStiffness" : 50.0,
                                      "bounceBounciness" : 0.45
                                    }
                                  
                                  },
                                  "metadata" : {
                                    "default-behavior-in-style" : "reveal",
                                    "default-behavior-out-style" : "reveal"
                                  }
                                }
                            ],
                            "start" : 1,
                            "duration" : 78,
                            "mediaStart" : 1,
                            "mediaDuration" : 78,
                            "scalar" : 1,
                            "metadata" : {
                              "WinSubProjectDisplayName" : "",
                              "clipSpeedAttribute" : false,
                              "default-HAlign" : "left",
                              "default-VAlign" : "center",
                              "default-text-attributes" : "[{\"name\":\"fontSize\",\"rangeEnd\":18,\"rangeStart\":0,\"value\":88,\"valueType\":\"double\"},{\"name\":\"fgColor\",\"rangeEnd\":18,\"rangeStart\":0,\"value\":\"(255,255,255,255)\",\"valueType\":\"color\"},{\"name\":\"fontName\",\"rangeEnd\":18,\"rangeStart\":0,\"value\":\"Montserrat\",\"valueType\":\"string\"},{\"name\":\"fontItalic\",\"rangeEnd\":18,\"rangeStart\":0,\"value\":0,\"valueType\":\"int\"},{\"name\":\"underline\",\"rangeEnd\":18,\"rangeStart\":0,\"value\":0,\"valueType\":\"int\"},{\"name\":\"fontWeight\",\"rangeEnd\":18,\"rangeStart\":0,\"value\":100,\"valueType\":\"int\"},{\"name\":\"strikethrough\",\"rangeEnd\":18,\"rangeStart\":0,\"value\":0,\"valueType\":\"int\"}]",
                              "default-translation0" : -436.428571428523,
                              "default-translation1" : -318.000000000136
                            },
                            "animationTracks" : {

                            }
                          }
                        ],
                        "transitions" : [
                          {
                            "name" : "RandomBars",
                            "duration" : 78,
                            "useAudioPreRoll" : true,
                            "useVisualPreRoll" : true,
                            "rightMedia" : 41
                          }
                        ],
                          "ident" : "",
                          "audioMuted" : false,
                          "videoHidden" : false,
                          "metadata" : {
                            "IsLocked" : "False",
                            "WinTrackHeight" : "1.17099070449647e-311"
                          }
                      }
                    ],
                    "attributes" : {
                      "ident" : "basictext-01",
                      "gain" : 1.0,
                      "mixToMono" : false
                    },
                    "effects" : [

                    ],
                    "start" : 918,
                    "duration" : 78,
                    "mediaStart" : 1.0,
                    "mediaDuration" : 78.0,
                    "scalar" : 1,
                    "metadata" : {
                      "IsGroupExpanded" : "False",
                      "WinSubProjectDisplayName" : ""
                    },
                    "animationTracks" : {

                    }
                  },
                  {
                    "id" : 42,
                    "_type" : "Group",
                    "parameters" : {
                      "volume" : 1.0
                    },
                    "tracks" : [
                      {
                        "trackIndex" : 0,
                        "medias" : [
                        ],
                          "ident" : "",
                          "audioMuted" : false,
                          "videoHidden" : false,
                          "metadata" : {
                            "IsLocked" : "False",
                            "WinTrackHeight" : "0"
                          }
                      },
                      {
                        "trackIndex" : 1,
                        "medias" : [
                          {
                            "id" : 43,
                            "_type" : "Callout",
                            "def" : {
                              "kind" : "remix",
                              "shape" : "text",
                              "style" : "basic",
                              "height" : 1080.00000000015,
                              "width" : 1920.00000000035,
                              "word-wrap" : 1.0,
                              "horizontal-alignment" : "center",
                              "text" : "SEVERE\rGRAVITY",
                              "vertical-alignment" : "center",
                              "font" : {
                                "color-blue" : 1.0,
                                "color-green" : 1.0,
                                "color-red" : 1.0,
                                "size" : 96.0,
                                "tracking" : 0.0,
                                "name" : "Montserrat",
                                "weight" : "Regular"
                              },
                              "textAttributes" : {
                                "type" : "textAttributeList",
                                "keyframes" : [
                                  {
                                    "time" : 0,
                                    "value" : [{"name":"fgColor","rangeEnd":14,"rangeStart":6,"value":"(109,195,255,255)","valueType":"color"},{"name":"fontName","rangeEnd":14,"rangeStart":0,"value":"OCR A Extended","valueType":"string"},{"name":"underline","rangeEnd":14,"rangeStart":0,"value":0,"valueType":"int"},{"name":"fontWeight","rangeEnd":14,"rangeStart":0,"value":700,"valueType":"int"},{"name":"fontSize","rangeEnd":14,"rangeStart":0,"value":128,"valueType":"double"},{"name":"strikethrough","rangeEnd":14,"rangeStart":0,"value":0,"valueType":"int"},{"name":"fontItalic","rangeEnd":14,"rangeStart":0,"value":0,"valueType":"int"},{"name":"fgColor","rangeEnd":6,"rangeStart":0,"value":"(255,0,0,255)","valueType":"color"}],
                                    "duration" : 0
                                  }
                                ]
                              }
                            },
                            "attributes" : {
                              "autoRotateText" : true
                            },
                            "parameters" : {
                              "translation0" : -2.51418441621354e-10,
                              "translation1" : -5.9657168094418e-11
                            },
                            "effects" : [
                                {
                                  "effectName" : "DropShadow",
                                  "parameters" : {
                                    "angle" : {
                                      "type" : "double",
                                      "defaultValue" : 5.49778714378214,
                                      "valueBounds" : {
                                        "minValue" : 0.0,
                                        "maxValue" : 0.0,
                                        "defaultValue" : 5.49778714378214
                                      },
                                      "uiHints" : {
                                        "userInterfaceType" : 0,
                                        "unitType" : 0
                                      }
                                    },
                                    "blur" : {
                                      "type" : "double",
                                      "defaultValue" : 10.0,
                                      "valueBounds" : {
                                        "minValue" : 0.0,
                                        "maxValue" : 50.0,
                                        "defaultValue" : 10.0
                                      },
                                      "uiHints" : {
                                        "userInterfaceType" : 0,
                                        "unitType" : 0
                                      }
                                    },
                                    "color-alpha" : {
                                      "type" : "double",
                                      "defaultValue" : 1.0,
                                      "valueBounds" : {
                                        "minValue" : 0.0,
                                        "maxValue" : 1.0,
                                        "defaultValue" : 1.0
                                      },
                                      "uiHints" : {
                                        "userInterfaceType" : 0,
                                        "unitType" : 0
                                      }
                                    },
                                    "color-blue" : {
                                      "type" : "double",
                                      "defaultValue" : 0.1216,
                                      "valueBounds" : {
                                        "minValue" : 0.0,
                                        "maxValue" : 1.0,
                                        "defaultValue" : 0.1216
                                      },
                                      "uiHints" : {
                                        "userInterfaceType" : 0,
                                        "unitType" : 0
                                      }
                                    },
                                    "color-green" : {
                                      "type" : "double",
                                      "defaultValue" : 0.1216,
                                      "valueBounds" : {
                                        "minValue" : 0.0,
                                        "maxValue" : 1.0,
                                        "defaultValue" : 0.1216
                                      },
                                      "uiHints" : {
                                        "userInterfaceType" : 0,
                                        "unitType" : 0
                                      }
                                    },
                                    "color-red" : {
                                      "type" : "double",
                                      "defaultValue" : 0.1216,
                                      "valueBounds" : {
                                        "minValue" : 0.0,
                                        "maxValue" : 1.0,
                                        "defaultValue" : 0.1216
                                      },
                                      "uiHints" : {
                                        "userInterfaceType" : 0,
                                        "unitType" : 0
                                      }
                                    },
                                    "enabled" : {
                                      "type" : "int",
                                      "valueBounds" : {
                                        "minValue" : 0,
                                        "maxValue" : 1,
                                        "defaultValue" : 1
                                      },
                                      "uiHints" : {
                                        "userInterfaceType" : 0,
                                        "unitType" : 0
                                      },
                                      "keyframes" : [
                                        {
                                          "time" : 0,
                                          "value" : 1,
                                          "duration" : 0
                                        }
                                      ]
                                    },
                                    "offset" : {
                                      "type" : "double",
                                      "defaultValue" : 10.0,
                                      "valueBounds" : {
                                        "minValue" : 0.0,
                                        "maxValue" : 250.0,
                                        "defaultValue" : 10.0
                                      },
                                      "uiHints" : {
                                        "userInterfaceType" : 0,
                                        "unitType" : 0
                                      }
                                    },
                                    "opacity" : {
                                      "type" : "double",
                                      "defaultValue" : 0.4,
                                      "valueBounds" : {
                                        "minValue" : 0.0,
                                        "maxValue" : 1.0,
                                        "defaultValue" : 0.4
                                      },
                                      "uiHints" : {
                                        "userInterfaceType" : 0,
                                        "unitType" : 0
                                      }
                                    }
                                  }
                                },
                                {
                                  "_type" : "GenericBehaviorEffect",
                                  "effectName" : "reveal",
                                  "start" : -54,
                                  "duration" : 402                                ,
                                  "in" : {
                                    "attributes" : {
                                      "name" : "shifting",
                                      "type" : 1,
                                      "characterOrder" : 4,
                                      "offsetBetweenCharacters" : 60,
                                      "suggestedDurationPerCharacter" : "337/2",
                                      "overlapProportion" : 0,
                                      "movement" : 2,
                                      "springDamping" : 7.0,
                                      "springStiffness" : 50.0,
                                      "bounceBounciness" : 0.45
                                    }
                                  
                                  },
                                  "center" : {
                                    "attributes" : {
                                      "name" : "none",
                                      "type" : 1,
                                      "characterOrder" : 6,
                                      "offsetBetweenCharacters" : 0,
                                      "secondsPerLoop" : 1,
                                      "numberOfLoops" : -1,
                                      "delayBetweenLoops" : 0,
                                      "offsetBetweenCharacters" : 0
                                    }
                                  
                                  },
                                  "out" : {
                                    "attributes" : {
                                      "name" : "fadeOut",
                                      "type" : 1,
                                      "characterOrder" : 6,
                                      "offsetBetweenCharacters" : "3/2",
                                      "suggestedDurationPerCharacter" : "249/2",
                                      "overlapProportion" : 0,
                                      "movement" : 0,
                                      "springDamping" : 5.0,
                                      "springStiffness" : 50.0,
                                      "bounceBounciness" : 0.45
                                    }
                                  
                                  },
                                  "metadata" : {
                                    "default-behavior-in-duration" : 45.5,
                                    "default-behavior-in-movement" : 30.0,
                                    "default-behavior-in-offset" : 0.6,
                                    "default-behavior-in-style" : "reveal",
                                    "default-behavior-out-duration" : 13.0,
                                    "default-behavior-out-movement" : 14.0,
                                    "default-behavior-out-style" : "reveal"
                                  }
                                }
                            ],
                            "start" : -95,
                            "duration" : 402,
                            "mediaStart" : -54,
                            "mediaDuration" : 402,
                            "scalar" : 1,
                            "metadata" : {
                              "WinSubProjectDisplayName" : "",
                              "clipSpeedAttribute" : false,
                              "default-HAlign" : "left",
                              "default-VAlign" : "center",
                              "default-text-attributes" : "[{\"name\":\"fontSize\",\"rangeEnd\":18,\"rangeStart\":0,\"value\":88,\"valueType\":\"double\"},{\"name\":\"fgColor\",\"rangeEnd\":18,\"rangeStart\":0,\"value\":\"(255,255,255,255)\",\"valueType\":\"color\"},{\"name\":\"fontName\",\"rangeEnd\":18,\"rangeStart\":0,\"value\":\"Montserrat\",\"valueType\":\"string\"},{\"name\":\"fontItalic\",\"rangeEnd\":18,\"rangeStart\":0,\"value\":0,\"valueType\":\"int\"},{\"name\":\"underline\",\"rangeEnd\":18,\"rangeStart\":0,\"value\":0,\"valueType\":\"int\"},{\"name\":\"fontWeight\",\"rangeEnd\":18,\"rangeStart\":0,\"value\":100,\"valueType\":\"int\"},{\"name\":\"strikethrough\",\"rangeEnd\":18,\"rangeStart\":0,\"value\":0,\"valueType\":\"int\"}]",
                              "default-translation0" : -436.428571428523,
                              "default-translation1" : -318.000000000136
                            },
                            "animationTracks" : {

                            }
                          }
                        ],
                          "ident" : "",
                          "audioMuted" : false,
                          "videoHidden" : false,
                          "metadata" : {
                            "IsLocked" : "False",
                            "WinTrackHeight" : "9.29896092406803e-312"
                          }
                      }
                    ],
                    "attributes" : {
                      "ident" : "basictext-01",
                      "gain" : 1.0,
                      "mixToMono" : false
                    },
                    "effects" : [

                    ],
                    "start" : 996,
                    "duration" : 371,
                    "mediaStart" : -64.0,
                    "mediaDuration" : 371.0,
                    "scalar" : 1,
                    "metadata" : {
                      "IsGroupExpanded" : "False",
                      "WinSubProjectDisplayName" : ""
                    },
                    "animationTracks" : {

                    }
                  },
                  {
                    "id" : 44,
                    "_type" : "UnifiedMedia",
                    "video" : 
                        {
                          "id" : 45,
                          "_type" : "VMFile",
                          "src" : 22,
                          "trackNumber" : 0,
                          "attributes" : {
                            "ident" : "fpstest game"
                          },
                          "parameters" : {
                            "translation1" : {
                              "type" : "double",
                              "defaultValue" : 51.9999999999328,
                              "interp" : "eioe"
                            }
                          },
                          "effects" : [

                          ],
                          "start" : 1428,
                          "duration" : 145,
                          "mediaStart" : 23655,
                          "mediaDuration" : 145,
                          "scalar" : 1,
                          "animationTracks" : {

                          }
                        },
                    "audio" : 
                        {
                          "id" : 46,
                          "_type" : "AMFile",
                          "src" : 22,
                          "trackNumber" : 1,
                          "attributes" : {
                            "ident" : "",
                            "sampleRate" : 48000,
                            "bitDepth" : 16,
                            "gain" : 1.0,
                            "mixToMono" : false
                          },
                            "channelNumber" : "0,1",
                          "effects" : [

                          ],
                          "start" : 1428,
                          "duration" : 145,
                          "mediaStart" : 23655,
                          "mediaDuration" : 145,
                          "scalar" : 1,
                          "animationTracks" : {

                          }
                        }
,
                    "start" : 1428,
                    "duration" : 145,
                    "mediaStart" : 0,
                    "mediaDuration" : 25356,
                    "scalar" : 1,
                    "metadata" : {
                      "WinSubProjectDisplayName" : "",
                      "clipSpeedAttribute" : false,
                      "default-translation1" : 0.0
                    }
                  },
                  {
                    "id" : 47,
                    "_type" : "Group",
                    "parameters" : {
                      "translation0" : 0.0699462890634948,
                      "scale0" : 1.37425,
                      "scale1" : 1.37425,
                      "volume" : 1.0
                    },
                    "tracks" : [
                      {
                        "trackIndex" : 0,
                        "medias" : [
                        ],
                          "ident" : "",
                          "audioMuted" : false,
                          "videoHidden" : false,
                          "metadata" : {
                            "IsLocked" : "False",
                            "WinTrackHeight" : "0"
                          }
                      },
                      {
                        "trackIndex" : 1,
                        "medias" : [
                          {
                            "id" : 48,
                            "_type" : "Callout",
                            "def" : {
                              "kind" : "remix",
                              "shape" : "text",
                              "style" : "basic",
                              "height" : 125.999999999979,
                              "width" : 935.930033222665,
                              "word-wrap" : 1.0,
                              "horizontal-alignment" : "left",
                              "text" : "Demo out now in Unity",
                              "vertical-alignment" : "center",
                              "font" : {
                                "color-blue" : 1.0,
                                "color-green" : 1.0,
                                "color-red" : 1.0,
                                "size" : 96.0,
                                "tracking" : 0.0,
                                "name" : "Montserrat",
                                "weight" : "Regular"
                              },
                              "textAttributes" : {
                                "type" : "textAttributeList",
                                "keyframes" : [
                                  {
                                    "time" : 0,
                                    "value" : [{"name":"fontWeight","rangeEnd":21,"rangeStart":0,"value":100,"valueType":"int"},{"name":"underline","rangeEnd":21,"rangeStart":0,"value":0,"valueType":"int"},{"name":"strikethrough","rangeEnd":21,"rangeStart":0,"value":0,"valueType":"int"},{"name":"fontName","rangeEnd":21,"rangeStart":0,"value":"OCR A Extended","valueType":"string"},{"name":"fontItalic","rangeEnd":21,"rangeStart":0,"value":0,"valueType":"int"},{"name":"fontSize","rangeEnd":21,"rangeStart":0,"value":88,"valueType":"double"},{"name":"fgColor","rangeEnd":21,"rangeStart":0,"value":"(255,255,255,255)","valueType":"color"}],
                                    "duration" : 0
                                  }
                                ]
                              }
                            },
                            "attributes" : {
                              "autoRotateText" : true
                            },
                            "parameters" : {
                              "translation0" : 0.0349833886904776,
                              "translation1" : 7.88418219599407e-11
                            },
                            "effects" : [
                                {
                                  "effectName" : "DropShadow",
                                  "parameters" : {
                                    "angle" : {
                                      "type" : "double",
                                      "defaultValue" : 5.49778714378214,
                                      "valueBounds" : {
                                        "minValue" : 0.0,
                                        "maxValue" : 0.0,
                                        "defaultValue" : 5.49778714378214
                                      },
                                      "uiHints" : {
                                        "userInterfaceType" : 0,
                                        "unitType" : 0
                                      }
                                    },
                                    "blur" : {
                                      "type" : "double",
                                      "defaultValue" : 10.0,
                                      "valueBounds" : {
                                        "minValue" : 0.0,
                                        "maxValue" : 50.0,
                                        "defaultValue" : 10.0
                                      },
                                      "uiHints" : {
                                        "userInterfaceType" : 0,
                                        "unitType" : 0
                                      }
                                    },
                                    "color-alpha" : {
                                      "type" : "double",
                                      "defaultValue" : 1.0,
                                      "valueBounds" : {
                                        "minValue" : 0.0,
                                        "maxValue" : 1.0,
                                        "defaultValue" : 1.0
                                      },
                                      "uiHints" : {
                                        "userInterfaceType" : 0,
                                        "unitType" : 0
                                      }
                                    },
                                    "color-blue" : {
                                      "type" : "double",
                                      "defaultValue" : 0.1216,
                                      "valueBounds" : {
                                        "minValue" : 0.0,
                                        "maxValue" : 1.0,
                                        "defaultValue" : 0.1216
                                      },
                                      "uiHints" : {
                                        "userInterfaceType" : 0,
                                        "unitType" : 0
                                      }
                                    },
                                    "color-green" : {
                                      "type" : "double",
                                      "defaultValue" : 0.1216,
                                      "valueBounds" : {
                                        "minValue" : 0.0,
                                        "maxValue" : 1.0,
                                        "defaultValue" : 0.1216
                                      },
                                      "uiHints" : {
                                        "userInterfaceType" : 0,
                                        "unitType" : 0
                                      }
                                    },
                                    "color-red" : {
                                      "type" : "double",
                                      "defaultValue" : 0.1216,
                                      "valueBounds" : {
                                        "minValue" : 0.0,
                                        "maxValue" : 1.0,
                                        "defaultValue" : 0.1216
                                      },
                                      "uiHints" : {
                                        "userInterfaceType" : 0,
                                        "unitType" : 0
                                      }
                                    },
                                    "enabled" : {
                                      "type" : "int",
                                      "valueBounds" : {
                                        "minValue" : 0,
                                        "maxValue" : 1,
                                        "defaultValue" : 1
                                      },
                                      "uiHints" : {
                                        "userInterfaceType" : 0,
                                        "unitType" : 0
                                      },
                                      "keyframes" : [
                                        {
                                          "time" : 0,
                                          "value" : 1,
                                          "duration" : 0
                                        }
                                      ]
                                    },
                                    "offset" : {
                                      "type" : "double",
                                      "defaultValue" : 10.0,
                                      "valueBounds" : {
                                        "minValue" : 0.0,
                                        "maxValue" : 250.0,
                                        "defaultValue" : 10.0
                                      },
                                      "uiHints" : {
                                        "userInterfaceType" : 0,
                                        "unitType" : 0
                                      }
                                    },
                                    "opacity" : {
                                      "type" : "double",
                                      "defaultValue" : 0.4,
                                      "valueBounds" : {
                                        "minValue" : 0.0,
                                        "maxValue" : 1.0,
                                        "defaultValue" : 0.4
                                      },
                                      "uiHints" : {
                                        "userInterfaceType" : 0,
                                        "unitType" : 0
                                      }
                                    }
                                  }
                                },
                                {
                                  "_type" : "GenericBehaviorEffect",
                                  "effectName" : "reveal",
                                  "start" : -30,
                                  "duration" : 240                                ,
                                  "in" : {
                                    "attributes" : {
                                      "name" : "shifting",
                                      "type" : 1,
                                      "characterOrder" : 4,
                                      "offsetBetweenCharacters" : "3/5",
                                      "suggestedDurationPerCharacter" : "91/2",
                                      "overlapProportion" : 0,
                                      "movement" : 2,
                                      "springDamping" : 7.0,
                                      "springStiffness" : 50.0,
                                      "bounceBounciness" : 0.45
                                    }
                                  
                                  },
                                  "center" : {
                                    "attributes" : {
                                      "name" : "none",
                                      "type" : 1,
                                      "characterOrder" : 6,
                                      "offsetBetweenCharacters" : 0,
                                      "secondsPerLoop" : 1,
                                      "numberOfLoops" : -1,
                                      "delayBetweenLoops" : 0,
                                      "offsetBetweenCharacters" : 0
                                    }
                                  
                                  },
                                  "out" : {
                                    "attributes" : {
                                      "name" : "shifting",
                                      "type" : 1,
                                      "characterOrder" : 4,
                                      "offsetBetweenCharacters" : "3/2",
                                      "suggestedDurationPerCharacter" : 17,
                                      "overlapProportion" : "1/2",
                                      "movement" : 14,
                                      "springDamping" : 5.0,
                                      "springStiffness" : 50.0,
                                      "bounceBounciness" : 0.45
                                    }
                                  
                                  },
                                  "metadata" : {
                                    "default-behavior-in-direction" : 0,
                                    "default-behavior-in-movement" : 30.0,
                                    "default-behavior-in-style" : "reveal",
                                    "default-behavior-out-direction" : 0,
                                    "default-behavior-out-duration" : 17.0,
                                    "default-behavior-out-offset" : 1.5,
                                    "default-behavior-out-style" : "reveal"
                                  }
                                }
                            ],
                            "start" : -30,
                            "duration" : 240,
                            "mediaStart" : -30,
                            "mediaDuration" : 240,
                            "scalar" : 1,
                            "metadata" : {
                              "WinSubProjectDisplayName" : "",
                              "clipSpeedAttribute" : false,
                              "default-HAlign" : "left",
                              "default-VAlign" : "center",
                              "default-text-attributes" : "[{\"name\":\"fontSize\",\"rangeEnd\":18,\"rangeStart\":0,\"value\":88,\"valueType\":\"double\"},{\"name\":\"fgColor\",\"rangeEnd\":18,\"rangeStart\":0,\"value\":\"(255,255,255,255)\",\"valueType\":\"color\"},{\"name\":\"fontName\",\"rangeEnd\":18,\"rangeStart\":0,\"value\":\"Montserrat\",\"valueType\":\"string\"},{\"name\":\"fontItalic\",\"rangeEnd\":18,\"rangeStart\":0,\"value\":0,\"valueType\":\"int\"},{\"name\":\"underline\",\"rangeEnd\":18,\"rangeStart\":0,\"value\":0,\"valueType\":\"int\"},{\"name\":\"fontWeight\",\"rangeEnd\":18,\"rangeStart\":0,\"value\":100,\"valueType\":\"int\"},{\"name\":\"strikethrough\",\"rangeEnd\":18,\"rangeStart\":0,\"value\":0,\"valueType\":\"int\"}]",
                              "default-translation0" : -436.428571428523,
                              "default-translation1" : -318.000000000136
                            },
                            "animationTracks" : {

                            }
                          }
                        ],
                          "ident" : "",
                          "audioMuted" : false,
                          "videoHidden" : false,
                          "metadata" : {
                            "IsLocked" : "False",
                            "WinTrackHeight" : "9.30058621237695e-312"
                          }
                      }
                    ],
                    "attributes" : {
                      "ident" : "basictext-01",
                      "gain" : 1.0,
                      "mixToMono" : false
                    },
                    "effects" : [

                    ],
                    "start" : 1573,
                    "duration" : 240,
                    "mediaStart" : -30.0,
                    "mediaDuration" : 240.0,
                    "scalar" : 1,
                    "metadata" : {
                      "IsGroupExpanded" : "False",
                      "WinSubProjectDisplayName" : "",
                      "default-scale0" : 1.0,
                      "default-scale1" : 1.0,
                      "default-translation0" : 0.0
                    },
                    "animationTracks" : {

                    }
                  }
                ],
                "transitions" : [
                  {
                    "name" : "RandomBars",
                    "duration" : 49,
                    "useAudioPreRoll" : true,
                    "useVisualPreRoll" : true,
                    "rightMedia" : 28
                  },
                  {
                    "name" : "RandomBars",
                    "duration" : 57,
                    "useAudioPreRoll" : true,
                    "useVisualPreRoll" : true,
                    "rightMedia" : 30
                  },
                  {
                    "name" : "RandomBars",
                    "duration" : 56,
                    "useAudioPreRoll" : true,
                    "useVisualPreRoll" : true,
                    "rightMedia" : 32
                  },
                  {
                    "name" : "RandomBars",
                    "duration" : 44,
                    "useAudioPreRoll" : true,
                    "useVisualPreRoll" : true,
                    "rightMedia" : 34
                  },
                  {
                    "name" : "RandomBars",
                    "duration" : 40,
                    "useAudioPreRoll" : true,
                    "useVisualPreRoll" : true,
                    "rightMedia" : 36
                  },
                  {
                    "name" : "RandomBars",
                    "duration" : 45,
                    "useAudioPreRoll" : true,
                    "useVisualPreRoll" : true,
                    "rightMedia" : 38
                  }
                ]
              },
              {
                "trackIndex" : 3,
                "medias" : [
                  {
                    "id" : 49,
                    "_type" : "AMFile",
                    "src" : 18,
                    "trackNumber" : 0,
                    "attributes" : {
                      "ident" : "Notification_Chime",
                      "sampleRate" : 44100,
                      "bitDepth" : 16,
                      "gain" : 1.0,
                      "mixToMono" : false
                    },
                      "channelNumber" : "0,1",
                    "effects" : [

                    ],
                    "start" : 1605,
                    "duration" : 5,
                    "mediaStart" : 0,
                    "mediaDuration" : 5,
                    "scalar" : 1,
                    "metadata" : {
                      "WinSubProjectDisplayName" : "",
                      "clipSpeedAttribute" : false
                    },
                    "animationTracks" : {

                    }
                  },
                  {
                    "id" : 50,
                    "_type" : "Callout",
                    "def" : {
                      "kind" : "remix",
                      "shape" : "text",
                      "style" : "basic",
                      "height" : 125.999999999979,
                      "width" : 935.930033222665,
                      "word-wrap" : 1.0,
                      "horizontal-alignment" : "center",
                      "text" : "by Fede P Grupo",
                      "vertical-alignment" : "center",
                      "font" : {
                        "color-blue" : 1.0,
                        "color-green" : 1.0,
                        "color-red" : 1.0,
                        "size" : 96.0,
                        "tracking" : 0.0,
                        "name" : "Montserrat",
                        "weight" : "Regular"
                      },
                      "textAttributes" : {
                        "type" : "textAttributeList",
                        "keyframes" : [
                          {
                            "time" : 0,
                            "value" : [{"name":"fontName","rangeEnd":15,"rangeStart":0,"value":"OCR A Extended","valueType":"string"},{"name":"fontWeight","rangeEnd":15,"rangeStart":0,"value":100,"valueType":"int"},{"name":"strikethrough","rangeEnd":15,"rangeStart":0,"value":0,"valueType":"int"},{"name":"fontItalic","rangeEnd":15,"rangeStart":0,"value":0,"valueType":"int"},{"name":"fgColor","rangeEnd":15,"rangeStart":0,"value":"(255,255,255,255)","valueType":"color"},{"name":"fontSize","rangeEnd":15,"rangeStart":0,"value":53,"valueType":"double"},{"name":"underline","rangeEnd":15,"rangeStart":0,"value":0,"valueType":"int"}],
                            "duration" : 0
                          }
                        ]
                      }
                    },
                    "attributes" : {
                      "autoRotateText" : true
                    },
                    "parameters" : {
                      "translation0" : 0.0349731446774513,
                      "translation1" : -272.99999999979
                    },
                    "effects" : [
                        {
                          "effectName" : "DropShadow",
                          "parameters" : {
                            "angle" : {
                              "type" : "double",
                              "defaultValue" : 5.49778714378214,
                              "valueBounds" : {
                                "minValue" : 0.0,
                                "maxValue" : 0.0,
                                "defaultValue" : 5.49778714378214
                              },
                              "uiHints" : {
                                "userInterfaceType" : 0,
                                "unitType" : 0
                              }
                            },
                            "blur" : {
                              "type" : "double",
                              "defaultValue" : 10.0,
                              "valueBounds" : {
                                "minValue" : 0.0,
                                "maxValue" : 50.0,
                                "defaultValue" : 10.0
                              },
                              "uiHints" : {
                                "userInterfaceType" : 0,
                                "unitType" : 0
                              }
                            },
                            "color-alpha" : {
                              "type" : "double",
                              "defaultValue" : 1.0,
                              "valueBounds" : {
                                "minValue" : 0.0,
                                "maxValue" : 1.0,
                                "defaultValue" : 1.0
                              },
                              "uiHints" : {
                                "userInterfaceType" : 0,
                                "unitType" : 0
                              }
                            },
                            "color-blue" : {
                              "type" : "double",
                              "defaultValue" : 0.1216,
                              "valueBounds" : {
                                "minValue" : 0.0,
                                "maxValue" : 1.0,
                                "defaultValue" : 0.1216
                              },
                              "uiHints" : {
                                "userInterfaceType" : 0,
                                "unitType" : 0
                              }
                            },
                            "color-green" : {
                              "type" : "double",
                              "defaultValue" : 0.1216,
                              "valueBounds" : {
                                "minValue" : 0.0,
                                "maxValue" : 1.0,
                                "defaultValue" : 0.1216
                              },
                              "uiHints" : {
                                "userInterfaceType" : 0,
                                "unitType" : 0
                              }
                            },
                            "color-red" : {
                              "type" : "double",
                              "defaultValue" : 0.1216,
                              "valueBounds" : {
                                "minValue" : 0.0,
                                "maxValue" : 1.0,
                                "defaultValue" : 0.1216
                              },
                              "uiHints" : {
                                "userInterfaceType" : 0,
                                "unitType" : 0
                              }
                            },
                            "enabled" : {
                              "type" : "int",
                              "valueBounds" : {
                                "minValue" : 0,
                                "maxValue" : 1,
                                "defaultValue" : 1
                              },
                              "uiHints" : {
                                "userInterfaceType" : 0,
                                "unitType" : 0
                              },
                              "keyframes" : [
                                {
                                  "time" : 0,
                                  "value" : 1,
                                  "duration" : 0
                                }
                              ]
                            },
                            "offset" : {
                              "type" : "double",
                              "defaultValue" : 10.0,
                              "valueBounds" : {
                                "minValue" : 0.0,
                                "maxValue" : 250.0,
                                "defaultValue" : 10.0
                              },
                              "uiHints" : {
                                "userInterfaceType" : 0,
                                "unitType" : 0
                              }
                            },
                            "opacity" : {
                              "type" : "double",
                              "defaultValue" : 0.4,
                              "valueBounds" : {
                                "minValue" : 0.0,
                                "maxValue" : 1.0,
                                "defaultValue" : 0.4
                              },
                              "uiHints" : {
                                "userInterfaceType" : 0,
                                "unitType" : 0
                              }
                            }
                          }
                        },
                        {
                          "_type" : "GenericBehaviorEffect",
                          "effectName" : "reveal",
                          "start" : -30,
                          "duration" : 167                        ,
                          "in" : {
                            "attributes" : {
                              "name" : "shifting",
                              "type" : 1,
                              "characterOrder" : 4,
                              "offsetBetweenCharacters" : "3/5",
                              "suggestedDurationPerCharacter" : "91/2",
                              "overlapProportion" : 0,
                              "movement" : 2,
                              "springDamping" : 7.0,
                              "springStiffness" : 50.0,
                              "bounceBounciness" : 0.45
                            }
                          
                          },
                          "center" : {
                            "attributes" : {
                              "name" : "none",
                              "type" : 1,
                              "characterOrder" : 6,
                              "offsetBetweenCharacters" : 0,
                              "secondsPerLoop" : 1,
                              "numberOfLoops" : -1,
                              "delayBetweenLoops" : 0,
                              "offsetBetweenCharacters" : 0
                            }
                          
                          },
                          "out" : {
                            "attributes" : {
                              "name" : "shifting",
                              "type" : 1,
                              "characterOrder" : 4,
                              "offsetBetweenCharacters" : "3/2",
                              "suggestedDurationPerCharacter" : 17,
                              "overlapProportion" : "1/2",
                              "movement" : 14,
                              "springDamping" : 5.0,
                              "springStiffness" : 50.0,
                              "bounceBounciness" : 0.45
                            }
                          
                          },
                          "metadata" : {
                            "default-behavior-in-direction" : 0,
                            "default-behavior-in-movement" : 30.0,
                            "default-behavior-in-style" : "reveal",
                            "default-behavior-out-direction" : 0,
                            "default-behavior-out-duration" : 17.0,
                            "default-behavior-out-offset" : 1.5,
                            "default-behavior-out-style" : "reveal"
                          }
                        }
                    ],
                    "start" : 1610,
                    "duration" : 167,
                    "mediaStart" : -30,
                    "mediaDuration" : 167,
                    "scalar" : 1,
                    "metadata" : {
                      "WinSubProjectDisplayName" : "",
                      "clipSpeedAttribute" : false,
                      "default-HAlign" : "left",
                      "default-VAlign" : "center",
                      "default-text-attributes" : "[{\"name\":\"fontSize\",\"rangeEnd\":18,\"rangeStart\":0,\"value\":88,\"valueType\":\"double\"},{\"name\":\"fgColor\",\"rangeEnd\":18,\"rangeStart\":0,\"value\":\"(255,255,255,255)\",\"valueType\":\"color\"},{\"name\":\"fontName\",\"rangeEnd\":18,\"rangeStart\":0,\"value\":\"Montserrat\",\"valueType\":\"string\"},{\"name\":\"fontItalic\",\"rangeEnd\":18,\"rangeStart\":0,\"value\":0,\"valueType\":\"int\"},{\"name\":\"underline\",\"rangeEnd\":18,\"rangeStart\":0,\"value\":0,\"valueType\":\"int\"},{\"name\":\"fontWeight\",\"rangeEnd\":18,\"rangeStart\":0,\"value\":100,\"valueType\":\"int\"},{\"name\":\"strikethrough\",\"rangeEnd\":18,\"rangeStart\":0,\"value\":0,\"valueType\":\"int\"}]",
                      "default-translation0" : -436.428571428523,
                      "default-translation1" : -318.000000000136
                    },
                    "animationTracks" : {

                    }
                  },
                  {
                    "id" : 51,
                    "_type" : "Group",
                    "parameters" : {
                      "translation1" : 138.500000000065,
                      "volume" : 1.0
                    },
                    "tracks" : [
                      {
                        "trackIndex" : 0,
                        "medias" : [
                          {
                            "id" : 52,
                            "_type" : "Callout",
                            "def" : {
                              "kind" : "remix",
                              "shape" : "text",
                              "style" : "basic",
                              "height" : 224.000001635241,
                              "width" : 1603.93003322261,
                              "word-wrap" : 1.0,
                              "horizontal-alignment" : "center",
                              "text" : "This is the Last Frontier - Matias Castro\rNotification Chime - Unity FPS Microgame\rWind Ambience - Unity FPS Microgame",
                              "vertical-alignment" : "top",
                              "font" : {
                                "color-blue" : 1.0,
                                "color-green" : 1.0,
                                "color-red" : 1.0,
                                "size" : 96.0,
                                "tracking" : 0.0,
                                "name" : "Montserrat",
                                "weight" : "Regular"
                              },
                              "textAttributes" : {
                                "type" : "textAttributeList",
                                "keyframes" : [
                                  {
                                    "time" : 0,
                                    "value" : [{"name":"fontWeight","rangeEnd":118,"rangeStart":0,"value":100,"valueType":"int"},{"name":"fontSize","rangeEnd":118,"rangeStart":0,"value":64,"valueType":"double"},{"name":"fgColor","rangeEnd":118,"rangeStart":0,"value":"(255,255,255,255)","valueType":"color"},{"name":"underline","rangeEnd":118,"rangeStart":0,"value":0,"valueType":"int"},{"name":"strikethrough","rangeEnd":118,"rangeStart":0,"value":0,"valueType":"int"},{"name":"fontName","rangeEnd":118,"rangeStart":0,"value":"OCR A Extended","valueType":"string"},{"name":"fontItalic","rangeEnd":118,"rangeStart":0,"value":0,"valueType":"int"}],
                                    "duration" : 0
                                  }
                                ]
                              }
                            },
                            "attributes" : {
                              "autoRotateText" : true
                            },
                            "parameters" : {
                              "translation0" : 0.0349833885530515,
                              "translation1" : 111.999999999955
                            },
                            "effects" : [
                                {
                                  "effectName" : "DropShadow",
                                  "parameters" : {
                                    "angle" : {
                                      "type" : "double",
                                      "defaultValue" : 5.49778714378214,
                                      "valueBounds" : {
                                        "minValue" : 0.0,
                                        "maxValue" : 0.0,
                                        "defaultValue" : 5.49778714378214
                                      },
                                      "uiHints" : {
                                        "userInterfaceType" : 0,
                                        "unitType" : 0
                                      }
                                    },
                                    "blur" : {
                                      "type" : "double",
                                      "defaultValue" : 10.0,
                                      "valueBounds" : {
                                        "minValue" : 0.0,
                                        "maxValue" : 50.0,
                                        "defaultValue" : 10.0
                                      },
                                      "uiHints" : {
                                        "userInterfaceType" : 0,
                                        "unitType" : 0
                                      }
                                    },
                                    "color-alpha" : {
                                      "type" : "double",
                                      "defaultValue" : 1.0,
                                      "valueBounds" : {
                                        "minValue" : 0.0,
                                        "maxValue" : 1.0,
                                        "defaultValue" : 1.0
                                      },
                                      "uiHints" : {
                                        "userInterfaceType" : 0,
                                        "unitType" : 0
                                      }
                                    },
                                    "color-blue" : {
                                      "type" : "double",
                                      "defaultValue" : 0.1216,
                                      "valueBounds" : {
                                        "minValue" : 0.0,
                                        "maxValue" : 1.0,
                                        "defaultValue" : 0.1216
                                      },
                                      "uiHints" : {
                                        "userInterfaceType" : 0,
                                        "unitType" : 0
                                      }
                                    },
                                    "color-green" : {
                                      "type" : "double",
                                      "defaultValue" : 0.1216,
                                      "valueBounds" : {
                                        "minValue" : 0.0,
                                        "maxValue" : 1.0,
                                        "defaultValue" : 0.1216
                                      },
                                      "uiHints" : {
                                        "userInterfaceType" : 0,
                                        "unitType" : 0
                                      }
                                    },
                                    "color-red" : {
                                      "type" : "double",
                                      "defaultValue" : 0.1216,
                                      "valueBounds" : {
                                        "minValue" : 0.0,
                                        "maxValue" : 1.0,
                                        "defaultValue" : 0.1216
                                      },
                                      "uiHints" : {
                                        "userInterfaceType" : 0,
                                        "unitType" : 0
                                      }
                                    },
                                    "enabled" : {
                                      "type" : "int",
                                      "valueBounds" : {
                                        "minValue" : 0,
                                        "maxValue" : 1,
                                        "defaultValue" : 1
                                      },
                                      "uiHints" : {
                                        "userInterfaceType" : 0,
                                        "unitType" : 0
                                      },
                                      "keyframes" : [
                                        {
                                          "time" : 0,
                                          "value" : 1,
                                          "duration" : 0
                                        }
                                      ]
                                    },
                                    "offset" : {
                                      "type" : "double",
                                      "defaultValue" : 10.0,
                                      "valueBounds" : {
                                        "minValue" : 0.0,
                                        "maxValue" : 250.0,
                                        "defaultValue" : 10.0
                                      },
                                      "uiHints" : {
                                        "userInterfaceType" : 0,
                                        "unitType" : 0
                                      }
                                    },
                                    "opacity" : {
                                      "type" : "double",
                                      "defaultValue" : 0.4,
                                      "valueBounds" : {
                                        "minValue" : 0.0,
                                        "maxValue" : 1.0,
                                        "defaultValue" : 0.4
                                      },
                                      "uiHints" : {
                                        "userInterfaceType" : 0,
                                        "unitType" : 0
                                      }
                                    }
                                  }
                                }
                            ],
                            "start" : 10,
                            "duration" : 190,
                            "mediaStart" : 10,
                            "mediaDuration" : 190,
                            "scalar" : 1,
                            "metadata" : {
                              "WinSubProjectDisplayName" : "",
                              "clipSpeedAttribute" : false,
                              "default-HAlign" : "left",
                              "default-VAlign" : "center",
                              "default-text-attributes" : "[{\"name\":\"underline\",\"rangeEnd\":18,\"rangeStart\":0,\"value\":0,\"valueType\":\"int\"},{\"name\":\"fontName\",\"rangeEnd\":18,\"rangeStart\":0,\"value\":\"Montserrat\",\"valueType\":\"string\"},{\"name\":\"fontSize\",\"rangeEnd\":18,\"rangeStart\":0,\"value\":55,\"valueType\":\"double\"},{\"name\":\"fontWeight\",\"rangeEnd\":18,\"rangeStart\":0,\"value\":100,\"valueType\":\"int\"},{\"name\":\"strikethrough\",\"rangeEnd\":18,\"rangeStart\":0,\"value\":0,\"valueType\":\"int\"},{\"name\":\"fgColor\",\"rangeEnd\":18,\"rangeStart\":0,\"value\":\"(255,255,255,255)\",\"valueType\":\"color\"},{\"name\":\"fontItalic\",\"rangeEnd\":18,\"rangeStart\":0,\"value\":0,\"valueType\":\"int\"}]",
                              "default-translation0" : -436.428561184353,
                              "default-translation1" : -404.714285714386
                            },
                            "animationTracks" : {

                            }
                          }
                        ],
                        "transitions" : [
                          {
                            "name" : "RandomBars",
                            "duration" : 30,
                            "useAudioPreRoll" : true,
                            "useVisualPreRoll" : true,
                            "rightMedia" : 52
                          },
                          {
                            "name" : "RandomBars",
                            "duration" : 30,
                            "useAudioPreRoll" : true,
                            "useVisualPreRoll" : true,
                            "leftMedia" : 52
                          }
                        ],
                          "ident" : "",
                          "audioMuted" : false,
                          "videoHidden" : false,
                          "metadata" : {
                            "IsLocked" : "False",
                            "WinTrackHeight" : "0"
                          }
                      },
                      {
                        "trackIndex" : 1,
                        "medias" : [
                          {
                            "id" : 53,
                            "_type" : "Callout",
                            "def" : {
                              "kind" : "remix",
                              "shape" : "text",
                              "style" : "basic",
                              "height" : 133.0,
                              "width" : 987.926146179645,
                              "word-wrap" : 1.0,
                              "horizontal-alignment" : "center",
                              "text" : "Music/SFX",
                              "vertical-alignment" : "center",
                              "font" : {
                                "color-blue" : 1.0,
                                "color-green" : 1.0,
                                "color-red" : 1.0,
                                "size" : 96.0,
                                "tracking" : 0.0,
                                "name" : "Montserrat",
                                "weight" : "Regular"
                              },
                              "textAttributes" : {
                                "type" : "textAttributeList",
                                "keyframes" : [
                                  {
                                    "time" : 0,
                                    "value" : [{"name":"fontItalic","rangeEnd":9,"rangeStart":0,"value":0,"valueType":"int"},{"name":"fontName","rangeEnd":9,"rangeStart":0,"value":"OCR A Extended","valueType":"string"},{"name":"underline","rangeEnd":9,"rangeStart":0,"value":0,"valueType":"int"},{"name":"strikethrough","rangeEnd":9,"rangeStart":0,"value":0,"valueType":"int"},{"name":"fontWeight","rangeEnd":9,"rangeStart":0,"value":700,"valueType":"int"},{"name":"fgColor","rangeEnd":9,"rangeStart":0,"value":"(255,255,255,255)","valueType":"color"},{"name":"fontSize","rangeEnd":9,"rangeStart":0,"value":96,"valueType":"double"}],
                                    "duration" : 0
                                  }
                                ]
                              }
                            },
                            "attributes" : {
                              "autoRotateText" : true
                            },
                            "parameters" : {
                              "translation0" : 0.034983388713421,
                              "translation1" : 335.000000000176
                            },
                            "effects" : [
                                {
                                  "effectName" : "DropShadow",
                                  "parameters" : {
                                    "angle" : {
                                      "type" : "double",
                                      "defaultValue" : 5.49778714378214,
                                      "valueBounds" : {
                                        "minValue" : 0.0,
                                        "maxValue" : 0.0,
                                        "defaultValue" : 5.49778714378214
                                      },
                                      "uiHints" : {
                                        "userInterfaceType" : 0,
                                        "unitType" : 0
                                      }
                                    },
                                    "blur" : {
                                      "type" : "double",
                                      "defaultValue" : 10.0,
                                      "valueBounds" : {
                                        "minValue" : 0.0,
                                        "maxValue" : 50.0,
                                        "defaultValue" : 10.0
                                      },
                                      "uiHints" : {
                                        "userInterfaceType" : 0,
                                        "unitType" : 0
                                      }
                                    },
                                    "color-alpha" : {
                                      "type" : "double",
                                      "defaultValue" : 1.0,
                                      "valueBounds" : {
                                        "minValue" : 0.0,
                                        "maxValue" : 1.0,
                                        "defaultValue" : 1.0
                                      },
                                      "uiHints" : {
                                        "userInterfaceType" : 0,
                                        "unitType" : 0
                                      }
                                    },
                                    "color-blue" : {
                                      "type" : "double",
                                      "defaultValue" : 0.1216,
                                      "valueBounds" : {
                                        "minValue" : 0.0,
                                        "maxValue" : 1.0,
                                        "defaultValue" : 0.1216
                                      },
                                      "uiHints" : {
                                        "userInterfaceType" : 0,
                                        "unitType" : 0
                                      }
                                    },
                                    "color-green" : {
                                      "type" : "double",
                                      "defaultValue" : 0.1216,
                                      "valueBounds" : {
                                        "minValue" : 0.0,
                                        "maxValue" : 1.0,
                                        "defaultValue" : 0.1216
                                      },
                                      "uiHints" : {
                                        "userInterfaceType" : 0,
                                        "unitType" : 0
                                      }
                                    },
                                    "color-red" : {
                                      "type" : "double",
                                      "defaultValue" : 0.1216,
                                      "valueBounds" : {
                                        "minValue" : 0.0,
                                        "maxValue" : 1.0,
                                        "defaultValue" : 0.1216
                                      },
                                      "uiHints" : {
                                        "userInterfaceType" : 0,
                                        "unitType" : 0
                                      }
                                    },
                                    "enabled" : {
                                      "type" : "int",
                                      "valueBounds" : {
                                        "minValue" : 0,
                                        "maxValue" : 1,
                                        "defaultValue" : 1
                                      },
                                      "uiHints" : {
                                        "userInterfaceType" : 0,
                                        "unitType" : 0
                                      },
                                      "keyframes" : [
                                        {
                                          "time" : 0,
                                          "value" : 1,
                                          "duration" : 0
                                        }
                                      ]
                                    },
                                    "offset" : {
                                      "type" : "double",
                                      "defaultValue" : 10.0,
                                      "valueBounds" : {
                                        "minValue" : 0.0,
                                        "maxValue" : 250.0,
                                        "defaultValue" : 10.0
                                      },
                                      "uiHints" : {
                                        "userInterfaceType" : 0,
                                        "unitType" : 0
                                      }
                                    },
                                    "opacity" : {
                                      "type" : "double",
                                      "defaultValue" : 0.4,
                                      "valueBounds" : {
                                        "minValue" : 0.0,
                                        "maxValue" : 1.0,
                                        "defaultValue" : 0.4
                                      },
                                      "uiHints" : {
                                        "userInterfaceType" : 0,
                                        "unitType" : 0
                                      }
                                    }
                                  }
                                }
                            ],
                            "start" : 0,
                            "duration" : 185,
                            "mediaStart" : 0,
                            "mediaDuration" : 185,
                            "scalar" : 1,
                            "metadata" : {
                              "WinSubProjectDisplayName" : "",
                              "clipSpeedAttribute" : false,
                              "default-HAlign" : "left",
                              "default-VAlign" : "center",
                              "default-text-attributes" : "[{\"name\":\"fontSize\",\"rangeEnd\":18,\"rangeStart\":0,\"value\":88,\"valueType\":\"double\"},{\"name\":\"fgColor\",\"rangeEnd\":18,\"rangeStart\":0,\"value\":\"(255,255,255,255)\",\"valueType\":\"color\"},{\"name\":\"fontName\",\"rangeEnd\":18,\"rangeStart\":0,\"value\":\"Montserrat\",\"valueType\":\"string\"},{\"name\":\"fontItalic\",\"rangeEnd\":18,\"rangeStart\":0,\"value\":0,\"valueType\":\"int\"},{\"name\":\"underline\",\"rangeEnd\":18,\"rangeStart\":0,\"value\":0,\"valueType\":\"int\"},{\"name\":\"fontWeight\",\"rangeEnd\":18,\"rangeStart\":0,\"value\":100,\"valueType\":\"int\"},{\"name\":\"strikethrough\",\"rangeEnd\":18,\"rangeStart\":0,\"value\":0,\"valueType\":\"int\"}]",
                              "default-translation0" : -436.428571428523,
                              "default-translation1" : -318.000000000136
                            },
                            "animationTracks" : {

                            }
                          }
                        ],
                          "ident" : "",
                          "audioMuted" : false,
                          "videoHidden" : false,
                          "metadata" : {
                            "IsLocked" : "False",
                            "WinTrackHeight" : "1.17102904553997e-311"
                          }
                      }
                    ],
                    "attributes" : {
                      "ident" : "basictext-01",
                      "gain" : 1.0,
                      "mixToMono" : false
                    },
                    "effects" : [

                    ],
                    "start" : 1880,
                    "duration" : 185,
                    "mediaStart" : 0.0,
                    "mediaDuration" : 185.0,
                    "scalar" : 1,
                    "metadata" : {
                      "IsGroupExpanded" : "False",
                      "WinSubProjectDisplayName" : "",
                      "default-translation1" : 0.0
                    },
                    "animationTracks" : {

                    }
                  }
                ]
              },
              {
                "trackIndex" : 4,
                "medias" : [
                  {
                    "id" : 54,
                    "_type" : "UnifiedMedia",
                    "video" : 
                        {
                          "id" : 55,
                          "_type" : "VMFile",
                          "src" : 22,
                          "trackNumber" : 0,
                          "attributes" : {
                            "ident" : "fpstest game"
                          },
                          "parameters" : {
                            "translation1" : {
                              "type" : "double",
                              "defaultValue" : 51.9999999999328,
                              "interp" : "eioe"
                            }
                          },
                          "effects" : [

                          ],
                          "start" : 79,
                          "duration" : 44,
                          "mediaStart" : 3271,
                          "mediaDuration" : 44,
                          "scalar" : 1,
                          "animationTracks" : {

                          }
                        },
                    "audio" : 
                        {
                          "id" : 56,
                          "_type" : "AMFile",
                          "src" : 22,
                          "trackNumber" : 1,
                          "attributes" : {
                            "ident" : "",
                            "sampleRate" : 48000,
                            "bitDepth" : 16,
                            "gain" : 1.0,
                            "mixToMono" : false
                          },
                            "channelNumber" : "0,1",
                          "effects" : [

                          ],
                          "start" : 79,
                          "duration" : 44,
                          "mediaStart" : 3271,
                          "mediaDuration" : 44,
                          "scalar" : 1,
                          "animationTracks" : {

                          }
                        }
,
                    "start" : 79,
                    "duration" : 44,
                    "mediaStart" : 0,
                    "mediaDuration" : 25356,
                    "scalar" : 1,
                    "metadata" : {
                      "WinSubProjectDisplayName" : "",
                      "clipSpeedAttribute" : false,
                      "default-translation1" : 0.0
                    }
                  },
                  {
                    "id" : 57,
                    "_type" : "UnifiedMedia",
                    "video" : 
                        {
                          "id" : 58,
                          "_type" : "VMFile",
                          "src" : 22,
                          "trackNumber" : 0,
                          "attributes" : {
                            "ident" : "fpstest game"
                          },
                          "parameters" : {
                            "translation1" : {
                              "type" : "double",
                              "defaultValue" : 51.9999999999648,
                              "interp" : "eioe"
                            }
                          },
                          "effects" : [

                          ],
                          "start" : 172,
                          "duration" : 58,
                          "mediaStart" : 4866,
                          "mediaDuration" : 58,
                          "scalar" : 1,
                          "animationTracks" : {

                          }
                        },
                    "audio" : 
                        {
                          "id" : 59,
                          "_type" : "AMFile",
                          "src" : 22,
                          "trackNumber" : 1,
                          "attributes" : {
                            "ident" : "",
                            "sampleRate" : 48000,
                            "bitDepth" : 16,
                            "gain" : 1.0,
                            "mixToMono" : false
                          },
                            "channelNumber" : "0,1",
                          "effects" : [

                          ],
                          "start" : 172,
                          "duration" : 58,
                          "mediaStart" : 4866,
                          "mediaDuration" : 58,
                          "scalar" : 1,
                          "animationTracks" : {

                          }
                        }
,
                    "start" : 172,
                    "duration" : 58,
                    "mediaStart" : 0,
                    "mediaDuration" : 25356,
                    "scalar" : 1,
                    "metadata" : {
                      "WinSubProjectDisplayName" : "",
                      "clipSpeedAttribute" : false,
                      "default-translation1" : 0.0
                    }
                  },
                  {
                    "id" : 60,
                    "_type" : "UnifiedMedia",
                    "video" : 
                        {
                          "id" : 61,
                          "_type" : "VMFile",
                          "src" : 22,
                          "trackNumber" : 0,
                          "attributes" : {
                            "ident" : "fpstest game"
                          },
                          "parameters" : {
                            "translation1" : {
                              "type" : "double",
                              "defaultValue" : 51.9999999999328,
                              "interp" : "eioe"
                            }
                          },
                          "effects" : [

                          ],
                          "start" : 289,
                          "duration" : 63,
                          "mediaStart" : 10239,
                          "mediaDuration" : 63,
                          "scalar" : 1,
                          "animationTracks" : {

                          }
                        },
                    "audio" : 
                        {
                          "id" : 62,
                          "_type" : "AMFile",
                          "src" : 22,
                          "trackNumber" : 1,
                          "attributes" : {
                            "ident" : "",
                            "sampleRate" : 48000,
                            "bitDepth" : 16,
                            "gain" : 1.0,
                            "mixToMono" : false
                          },
                            "channelNumber" : "0,1",
                          "effects" : [

                          ],
                          "start" : 289,
                          "duration" : 63,
                          "mediaStart" : 10239,
                          "mediaDuration" : 63,
                          "scalar" : 1,
                          "animationTracks" : {

                          }
                        }
,
                    "start" : 289,
                    "duration" : 63,
                    "mediaStart" : 0,
                    "mediaDuration" : 25356,
                    "scalar" : 1,
                    "metadata" : {
                      "WinSubProjectDisplayName" : "",
                      "clipSpeedAttribute" : false,
                      "default-translation1" : 0.0
                    }
                  },
                  {
                    "id" : 63,
                    "_type" : "UnifiedMedia",
                    "video" : 
                        {
                          "id" : 64,
                          "_type" : "VMFile",
                          "src" : 22,
                          "trackNumber" : 0,
                          "attributes" : {
                            "ident" : "fpstest game"
                          },
                          "parameters" : {
                            "translation1" : {
                              "type" : "double",
                              "defaultValue" : 51.9999999999328,
                              "interp" : "eioe"
                            }
                          },
                          "effects" : [

                          ],
                          "start" : 400,
                          "duration" : 49,
                          "mediaStart" : 11327,
                          "mediaDuration" : 49,
                          "scalar" : 1,
                          "animationTracks" : {

                          }
                        },
                    "audio" : 
                        {
                          "id" : 65,
                          "_type" : "AMFile",
                          "src" : 22,
                          "trackNumber" : 1,
                          "attributes" : {
                            "ident" : "",
                            "sampleRate" : 48000,
                            "bitDepth" : 16,
                            "gain" : 1.0,
                            "mixToMono" : false
                          },
                            "channelNumber" : "0,1",
                          "effects" : [

                          ],
                          "start" : 400,
                          "duration" : 49,
                          "mediaStart" : 11327,
                          "mediaDuration" : 49,
                          "scalar" : 1,
                          "animationTracks" : {

                          }
                        }
,
                    "start" : 400,
                    "duration" : 49,
                    "mediaStart" : 0,
                    "mediaDuration" : 25356,
                    "scalar" : 1,
                    "metadata" : {
                      "WinSubProjectDisplayName" : "",
                      "clipSpeedAttribute" : false,
                      "default-translation1" : 0.0
                    }
                  },
                  {
                    "id" : 66,
                    "_type" : "UnifiedMedia",
                    "video" : 
                        {
                          "id" : 67,
                          "_type" : "VMFile",
                          "src" : 22,
                          "trackNumber" : 0,
                          "attributes" : {
                            "ident" : "fpstest game"
                          },
                          "parameters" : {
                            "translation0" : {
                              "type" : "double",
                              "defaultValue" : -3.09178460611292e-10,
                              "interp" : "eioe"
                            },
                            "translation1" : {
                              "type" : "double",
                              "defaultValue" : 51.999999999934,
                              "interp" : "eioe"
                            }
                          },
                          "effects" : [

                          ],
                          "start" : 527,
                          "duration" : 49,
                          "mediaStart" : 13466,
                          "mediaDuration" : 49,
                          "scalar" : 1,
                          "animationTracks" : {

                          }
                        },
                    "audio" : 
                        {
                          "id" : 68,
                          "_type" : "AMFile",
                          "src" : 22,
                          "trackNumber" : 1,
                          "attributes" : {
                            "ident" : "",
                            "sampleRate" : 48000,
                            "bitDepth" : 16,
                            "gain" : 1.0,
                            "mixToMono" : false
                          },
                            "channelNumber" : "0,1",
                          "effects" : [

                          ],
                          "start" : 527,
                          "duration" : 49,
                          "mediaStart" : 13466,
                          "mediaDuration" : 49,
                          "scalar" : 1,
                          "animationTracks" : {

                          }
                        }
,
                    "start" : 527,
                    "duration" : 49,
                    "mediaStart" : 0,
                    "mediaDuration" : 25356,
                    "scalar" : 1,
                    "metadata" : {
                      "WinSubProjectDisplayName" : "",
                      "clipSpeedAttribute" : false,
                      "default-translation0" : 0.0,
                      "default-translation1" : 0.0
                    }
                  },
                  {
                    "id" : 69,
                    "_type" : "UnifiedMedia",
                    "video" : 
                        {
                          "id" : 70,
                          "_type" : "VMFile",
                          "src" : 22,
                          "trackNumber" : 0,
                          "attributes" : {
                            "ident" : "fpstest game"
                          },
                          "parameters" : {
                            "translation1" : {
                              "type" : "double",
                              "defaultValue" : 51.9999999999328,
                              "interp" : "eioe"
                            }
                          },
                          "effects" : [

                          ],
                          "start" : 654,
                          "duration" : 58,
                          "mediaStart" : 14833,
                          "mediaDuration" : 58,
                          "scalar" : 1,
                          "animationTracks" : {

                          }
                        },
                    "audio" : 
                        {
                          "id" : 71,
                          "_type" : "AMFile",
                          "src" : 22,
                          "trackNumber" : 1,
                          "attributes" : {
                            "ident" : "",
                            "sampleRate" : 48000,
                            "bitDepth" : 16,
                            "gain" : 1.0,
                            "mixToMono" : false
                          },
                            "channelNumber" : "0,1",
                          "effects" : [

                          ],
                          "start" : 654,
                          "duration" : 58,
                          "mediaStart" : 14833,
                          "mediaDuration" : 58,
                          "scalar" : 1,
                          "animationTracks" : {

                          }
                        }
,
                    "start" : 654,
                    "duration" : 58,
                    "mediaStart" : 0,
                    "mediaDuration" : 25356,
                    "scalar" : 1,
                    "metadata" : {
                      "WinSubProjectDisplayName" : "",
                      "clipSpeedAttribute" : false,
                      "default-translation1" : 0.0
                    }
                  },
                  {
                    "id" : 72,
                    "_type" : "UnifiedMedia",
                    "video" : 
                        {
                          "id" : 73,
                          "_type" : "VMFile",
                          "src" : 22,
                          "trackNumber" : 0,
                          "attributes" : {
                            "ident" : "fpstest game"
                          },
                          "parameters" : {
                            "translation1" : {
                              "type" : "double",
                              "defaultValue" : 51.9999999999328,
                              "interp" : "eioe"
                            }
                          },
                          "effects" : [

                          ],
                          "start" : 790,
                          "duration" : 55,
                          "mediaStart" : 21589,
                          "mediaDuration" : 55,
                          "scalar" : 1,
                          "animationTracks" : {

                          }
                        },
                    "audio" : 
                        {
                          "id" : 74,
                          "_type" : "AMFile",
                          "src" : 22,
                          "trackNumber" : 1,
                          "attributes" : {
                            "ident" : "",
                            "sampleRate" : 48000,
                            "bitDepth" : 16,
                            "gain" : 1.0,
                            "mixToMono" : false
                          },
                            "channelNumber" : "0,1",
                          "effects" : [

                          ],
                          "start" : 790,
                          "duration" : 55,
                          "mediaStart" : 21589,
                          "mediaDuration" : 55,
                          "scalar" : 1,
                          "animationTracks" : {

                          }
                        }
,
                    "start" : 790,
                    "duration" : 55,
                    "mediaStart" : 0,
                    "mediaDuration" : 25356,
                    "scalar" : 1,
                    "metadata" : {
                      "WinSubProjectDisplayName" : "",
                      "clipSpeedAttribute" : false,
                      "default-translation1" : 0.0
                    }
                  },
                  {
                    "id" : 75,
                    "_type" : "Group",
                    "parameters" : {
                      "translation0" : -0.0699565333521264,
                      "translation1" : -262.999999999945,
                      "volume" : 1.0
                    },
                    "tracks" : [
                      {
                        "trackIndex" : 0,
                        "medias" : [
                          {
                            "id" : 76,
                            "_type" : "Callout",
                            "def" : {
                              "kind" : "remix",
                              "shape" : "text",
                              "style" : "basic",
                              "height" : 224.000001635241,
                              "width" : 1603.93003322261,
                              "word-wrap" : 1.0,
                              "horizontal-alignment" : "center",
                              "text" : "Rodrigo Cabello Hernández - Gameplay\rEnrique Juan Gamboa - Edición",
                              "vertical-alignment" : "top",
                              "font" : {
                                "color-blue" : 1.0,
                                "color-green" : 1.0,
                                "color-red" : 1.0,
                                "size" : 96.0,
                                "tracking" : 0.0,
                                "name" : "Montserrat",
                                "weight" : "Regular"
                              },
                              "textAttributes" : {
                                "type" : "textAttributeList",
                                "keyframes" : [
                                  {
                                    "time" : 0,
                                    "value" : [{"name":"fontSize","rangeEnd":68,"rangeStart":0,"value":64,"valueType":"double"},{"name":"fontName","rangeEnd":68,"rangeStart":0,"value":"OCR A Extended","valueType":"string"},{"name":"fontItalic","rangeEnd":68,"rangeStart":0,"value":0,"valueType":"int"},{"name":"fontWeight","rangeEnd":68,"rangeStart":0,"value":100,"valueType":"int"},{"name":"strikethrough","rangeEnd":68,"rangeStart":0,"value":0,"valueType":"int"},{"name":"underline","rangeEnd":68,"rangeStart":0,"value":0,"valueType":"int"},{"name":"fgColor","rangeEnd":68,"rangeStart":0,"value":"(255,255,255,255)","valueType":"color"}],
                                    "duration" : 0
                                  }
                                ]
                              }
                            },
                            "attributes" : {
                              "autoRotateText" : true
                            },
                            "parameters" : {
                              "translation0" : 0.0349833885530515,
                              "translation1" : 111.999999999955
                            },
                            "effects" : [
                                {
                                  "effectName" : "DropShadow",
                                  "parameters" : {
                                    "angle" : {
                                      "type" : "double",
                                      "defaultValue" : 5.49778714378214,
                                      "valueBounds" : {
                                        "minValue" : 0.0,
                                        "maxValue" : 0.0,
                                        "defaultValue" : 5.49778714378214
                                      },
                                      "uiHints" : {
                                        "userInterfaceType" : 0,
                                        "unitType" : 0
                                      }
                                    },
                                    "blur" : {
                                      "type" : "double",
                                      "defaultValue" : 10.0,
                                      "valueBounds" : {
                                        "minValue" : 0.0,
                                        "maxValue" : 50.0,
                                        "defaultValue" : 10.0
                                      },
                                      "uiHints" : {
                                        "userInterfaceType" : 0,
                                        "unitType" : 0
                                      }
                                    },
                                    "color-alpha" : {
                                      "type" : "double",
                                      "defaultValue" : 1.0,
                                      "valueBounds" : {
                                        "minValue" : 0.0,
                                        "maxValue" : 1.0,
                                        "defaultValue" : 1.0
                                      },
                                      "uiHints" : {
                                        "userInterfaceType" : 0,
                                        "unitType" : 0
                                      }
                                    },
                                    "color-blue" : {
                                      "type" : "double",
                                      "defaultValue" : 0.1216,
                                      "valueBounds" : {
                                        "minValue" : 0.0,
                                        "maxValue" : 1.0,
                                        "defaultValue" : 0.1216
                                      },
                                      "uiHints" : {
                                        "userInterfaceType" : 0,
                                        "unitType" : 0
                                      }
                                    },
                                    "color-green" : {
                                      "type" : "double",
                                      "defaultValue" : 0.1216,
                                      "valueBounds" : {
                                        "minValue" : 0.0,
                                        "maxValue" : 1.0,
                                        "defaultValue" : 0.1216
                                      },
                                      "uiHints" : {
                                        "userInterfaceType" : 0,
                                        "unitType" : 0
                                      }
                                    },
                                    "color-red" : {
                                      "type" : "double",
                                      "defaultValue" : 0.1216,
                                      "valueBounds" : {
                                        "minValue" : 0.0,
                                        "maxValue" : 1.0,
                                        "defaultValue" : 0.1216
                                      },
                                      "uiHints" : {
                                        "userInterfaceType" : 0,
                                        "unitType" : 0
                                      }
                                    },
                                    "enabled" : {
                                      "type" : "int",
                                      "valueBounds" : {
                                        "minValue" : 0,
                                        "maxValue" : 1,
                                        "defaultValue" : 1
                                      },
                                      "uiHints" : {
                                        "userInterfaceType" : 0,
                                        "unitType" : 0
                                      },
                                      "keyframes" : [
                                        {
                                          "time" : 0,
                                          "value" : 1,
                                          "duration" : 0
                                        }
                                      ]
                                    },
                                    "offset" : {
                                      "type" : "double",
                                      "defaultValue" : 10.0,
                                      "valueBounds" : {
                                        "minValue" : 0.0,
                                        "maxValue" : 250.0,
                                        "defaultValue" : 10.0
                                      },
                                      "uiHints" : {
                                        "userInterfaceType" : 0,
                                        "unitType" : 0
                                      }
                                    },
                                    "opacity" : {
                                      "type" : "double",
                                      "defaultValue" : 0.4,
                                      "valueBounds" : {
                                        "minValue" : 0.0,
                                        "maxValue" : 1.0,
                                        "defaultValue" : 0.4
                                      },
                                      "uiHints" : {
                                        "userInterfaceType" : 0,
                                        "unitType" : 0
                                      }
                                    }
                                  }
                                }
                            ],
                            "start" : 10,
                            "duration" : 190,
                            "mediaStart" : 10,
                            "mediaDuration" : 190,
                            "scalar" : 1,
                            "metadata" : {
                              "WinSubProjectDisplayName" : "",
                              "clipSpeedAttribute" : false,
                              "default-HAlign" : "left",
                              "default-VAlign" : "center",
                              "default-text-attributes" : "[{\"name\":\"underline\",\"rangeEnd\":18,\"rangeStart\":0,\"value\":0,\"valueType\":\"int\"},{\"name\":\"fontName\",\"rangeEnd\":18,\"rangeStart\":0,\"value\":\"Montserrat\",\"valueType\":\"string\"},{\"name\":\"fontSize\",\"rangeEnd\":18,\"rangeStart\":0,\"value\":55,\"valueType\":\"double\"},{\"name\":\"fontWeight\",\"rangeEnd\":18,\"rangeStart\":0,\"value\":100,\"valueType\":\"int\"},{\"name\":\"strikethrough\",\"rangeEnd\":18,\"rangeStart\":0,\"value\":0,\"valueType\":\"int\"},{\"name\":\"fgColor\",\"rangeEnd\":18,\"rangeStart\":0,\"value\":\"(255,255,255,255)\",\"valueType\":\"color\"},{\"name\":\"fontItalic\",\"rangeEnd\":18,\"rangeStart\":0,\"value\":0,\"valueType\":\"int\"}]",
                              "default-translation0" : -436.428561184353,
                              "default-translation1" : -404.714285714386
                            },
                            "animationTracks" : {

                            }
                          }
                        ],
                        "transitions" : [
                          {
                            "name" : "RandomBars",
                            "duration" : 30,
                            "useAudioPreRoll" : true,
                            "useVisualPreRoll" : true,
                            "rightMedia" : 76
                          },
                          {
                            "name" : "RandomBars",
                            "duration" : 30,
                            "useAudioPreRoll" : true,
                            "useVisualPreRoll" : true,
                            "leftMedia" : 76
                          }
                        ],
                          "ident" : "",
                          "audioMuted" : false,
                          "videoHidden" : false,
                          "metadata" : {
                            "IsLocked" : "False",
                            "WinTrackHeight" : "0"
                          }
                      },
                      {
                        "trackIndex" : 1,
                        "medias" : [
                          {
                            "id" : 77,
                            "_type" : "Callout",
                            "def" : {
                              "kind" : "remix",
                              "shape" : "text",
                              "style" : "basic",
                              "height" : 133.0,
                              "width" : 987.926146179645,
                              "word-wrap" : 1.0,
                              "horizontal-alignment" : "center",
                              "text" : "Video",
                              "vertical-alignment" : "center",
                              "font" : {
                                "color-blue" : 1.0,
                                "color-green" : 1.0,
                                "color-red" : 1.0,
                                "size" : 96.0,
                                "tracking" : 0.0,
                                "name" : "Montserrat",
                                "weight" : "Regular"
                              },
                              "textAttributes" : {
                                "type" : "textAttributeList",
                                "keyframes" : [
                                  {
                                    "time" : 0,
                                    "value" : [{"name":"fgColor","rangeEnd":5,"rangeStart":0,"value":"(255,255,255,255)","valueType":"color"},{"name":"fontItalic","rangeEnd":5,"rangeStart":0,"value":0,"valueType":"int"},{"name":"strikethrough","rangeEnd":5,"rangeStart":0,"value":0,"valueType":"int"},{"name":"underline","rangeEnd":5,"rangeStart":0,"value":0,"valueType":"int"},{"name":"fontWeight","rangeEnd":5,"rangeStart":0,"value":700,"valueType":"int"},{"name":"fontSize","rangeEnd":5,"rangeStart":0,"value":96,"valueType":"double"},{"name":"fontName","rangeEnd":5,"rangeStart":0,"value":"OCR A Extended","valueType":"string"}],
                                    "duration" : 0
                                  }
                                ]
                              }
                            },
                            "attributes" : {
                              "autoRotateText" : true
                            },
                            "parameters" : {
                              "translation0" : 0.034983388713421,
                              "translation1" : 335.000000000176
                            },
                            "effects" : [
                                {
                                  "effectName" : "DropShadow",
                                  "parameters" : {
                                    "angle" : {
                                      "type" : "double",
                                      "defaultValue" : 5.49778714378214,
                                      "valueBounds" : {
                                        "minValue" : 0.0,
                                        "maxValue" : 0.0,
                                        "defaultValue" : 5.49778714378214
                                      },
                                      "uiHints" : {
                                        "userInterfaceType" : 0,
                                        "unitType" : 0
                                      }
                                    },
                                    "blur" : {
                                      "type" : "double",
                                      "defaultValue" : 10.0,
                                      "valueBounds" : {
                                        "minValue" : 0.0,
                                        "maxValue" : 50.0,
                                        "defaultValue" : 10.0
                                      },
                                      "uiHints" : {
                                        "userInterfaceType" : 0,
                                        "unitType" : 0
                                      }
                                    },
                                    "color-alpha" : {
                                      "type" : "double",
                                      "defaultValue" : 1.0,
                                      "valueBounds" : {
                                        "minValue" : 0.0,
                                        "maxValue" : 1.0,
                                        "defaultValue" : 1.0
                                      },
                                      "uiHints" : {
                                        "userInterfaceType" : 0,
                                        "unitType" : 0
                                      }
                                    },
                                    "color-blue" : {
                                      "type" : "double",
                                      "defaultValue" : 0.1216,
                                      "valueBounds" : {
                                        "minValue" : 0.0,
                                        "maxValue" : 1.0,
                                        "defaultValue" : 0.1216
                                      },
                                      "uiHints" : {
                                        "userInterfaceType" : 0,
                                        "unitType" : 0
                                      }
                                    },
                                    "color-green" : {
                                      "type" : "double",
                                      "defaultValue" : 0.1216,
                                      "valueBounds" : {
                                        "minValue" : 0.0,
                                        "maxValue" : 1.0,
                                        "defaultValue" : 0.1216
                                      },
                                      "uiHints" : {
                                        "userInterfaceType" : 0,
                                        "unitType" : 0
                                      }
                                    },
                                    "color-red" : {
                                      "type" : "double",
                                      "defaultValue" : 0.1216,
                                      "valueBounds" : {
                                        "minValue" : 0.0,
                                        "maxValue" : 1.0,
                                        "defaultValue" : 0.1216
                                      },
                                      "uiHints" : {
                                        "userInterfaceType" : 0,
                                        "unitType" : 0
                                      }
                                    },
                                    "enabled" : {
                                      "type" : "int",
                                      "valueBounds" : {
                                        "minValue" : 0,
                                        "maxValue" : 1,
                                        "defaultValue" : 1
                                      },
                                      "uiHints" : {
                                        "userInterfaceType" : 0,
                                        "unitType" : 0
                                      },
                                      "keyframes" : [
                                        {
                                          "time" : 0,
                                          "value" : 1,
                                          "duration" : 0
                                        }
                                      ]
                                    },
                                    "offset" : {
                                      "type" : "double",
                                      "defaultValue" : 10.0,
                                      "valueBounds" : {
                                        "minValue" : 0.0,
                                        "maxValue" : 250.0,
                                        "defaultValue" : 10.0
                                      },
                                      "uiHints" : {
                                        "userInterfaceType" : 0,
                                        "unitType" : 0
                                      }
                                    },
                                    "opacity" : {
                                      "type" : "double",
                                      "defaultValue" : 0.4,
                                      "valueBounds" : {
                                        "minValue" : 0.0,
                                        "maxValue" : 1.0,
                                        "defaultValue" : 0.4
                                      },
                                      "uiHints" : {
                                        "userInterfaceType" : 0,
                                        "unitType" : 0
                                      }
                                    }
                                  }
                                }
                            ],
                            "start" : 0,
                            "duration" : 185,
                            "mediaStart" : 0,
                            "mediaDuration" : 185,
                            "scalar" : 1,
                            "metadata" : {
                              "WinSubProjectDisplayName" : "",
                              "clipSpeedAttribute" : false,
                              "default-HAlign" : "left",
                              "default-VAlign" : "center",
                              "default-text-attributes" : "[{\"name\":\"fontSize\",\"rangeEnd\":18,\"rangeStart\":0,\"value\":88,\"valueType\":\"double\"},{\"name\":\"fgColor\",\"rangeEnd\":18,\"rangeStart\":0,\"value\":\"(255,255,255,255)\",\"valueType\":\"color\"},{\"name\":\"fontName\",\"rangeEnd\":18,\"rangeStart\":0,\"value\":\"Montserrat\",\"valueType\":\"string\"},{\"name\":\"fontItalic\",\"rangeEnd\":18,\"rangeStart\":0,\"value\":0,\"valueType\":\"int\"},{\"name\":\"underline\",\"rangeEnd\":18,\"rangeStart\":0,\"value\":0,\"valueType\":\"int\"},{\"name\":\"fontWeight\",\"rangeEnd\":18,\"rangeStart\":0,\"value\":100,\"valueType\":\"int\"},{\"name\":\"strikethrough\",\"rangeEnd\":18,\"rangeStart\":0,\"value\":0,\"valueType\":\"int\"}]",
                              "default-translation0" : -436.428571428523,
                              "default-translation1" : -318.000000000136
                            },
                            "animationTracks" : {

                            }
                          }
                        ],
                          "ident" : "",
                          "audioMuted" : false,
                          "videoHidden" : false,
                          "metadata" : {
                            "IsLocked" : "False",
                            "WinTrackHeight" : "1.17102904553997e-311"
                          }
                      }
                    ],
                    "attributes" : {
                      "ident" : "basictext-01",
                      "gain" : 1.0,
                      "mixToMono" : false
                    },
                    "effects" : [

                    ],
                    "start" : 1880,
                    "duration" : 185,
                    "mediaStart" : 0.0,
                    "mediaDuration" : 185.0,
                    "scalar" : 1,
                    "metadata" : {
                      "IsGroupExpanded" : "False",
                      "WinSubProjectDisplayName" : "",
                      "default-translation0" : 0.0,
                      "default-translation1" : 0.0
                    },
                    "animationTracks" : {

                    }
                  }
                ]
              },
              {
                "trackIndex" : 5,
                "medias" : [
                  {
                    "id" : 78,
                    "_type" : "IMFile",
                    "src" : 20,
                    "trackNumber" : 0,
                    "trimStartSum" : -187,
                    "attributes" : {
                      "ident" : "download (4)"
                    },
                    "parameters" : {
                      "translation0" : -1.99918304133462e-10,
                      "translation1" : 1202.84810126683,
                      "scale0" : 5.88607594936677,
                      "scale1" : 5.88607594936676
                    },
                    "effects" : [

                    ],
                    "start" : 0,
                    "duration" : 1573,
                    "mediaStart" : 0,
                    "mediaDuration" : 1,
                    "scalar" : 1,
                    "metadata" : {
                      "WinSubProjectDisplayName" : "",
                      "clipSpeedAttribute" : false,
                      "default-scale0" : 1.0,
                      "default-scale1" : 1.0,
                      "default-translation0" : 0.0,
                      "default-translation1" : 0.0
                    },
                    "animationTracks" : {

                    }
                  },
                  {
                    "id" : 79,
                    "_type" : "Group",
                    "parameters" : {
                      "translation0" : 0.0699565328180043,
                      "translation1" : -664.499999999979,
                      "volume" : 1.0
                    },
                    "tracks" : [
                      {
                        "trackIndex" : 0,
                        "medias" : [
                        ],
                          "ident" : "",
                          "audioMuted" : false,
                          "videoHidden" : false,
                          "metadata" : {
                            "IsLocked" : "False",
                            "WinTrackHeight" : "0"
                          }
                      },
                      {
                        "trackIndex" : 1,
                        "medias" : [
                          {
                            "id" : 80,
                            "_type" : "Callout",
                            "def" : {
                              "kind" : "remix",
                              "shape" : "text",
                              "style" : "basic",
                              "height" : 133.0,
                              "width" : 1920.00000000032,
                              "word-wrap" : 1.0,
                              "horizontal-alignment" : "center",
                              "text" : "Proyecto del grupo 8 DV",
                              "vertical-alignment" : "top",
                              "font" : {
                                "color-blue" : 1.0,
                                "color-green" : 1.0,
                                "color-red" : 1.0,
                                "size" : 96.0,
                                "tracking" : 0.0,
                                "name" : "Montserrat",
                                "weight" : "Regular"
                              },
                              "textAttributes" : {
                                "type" : "textAttributeList",
                                "keyframes" : [
                                  {
                                    "time" : 0,
                                    "value" : [{"name":"fontSize","rangeEnd":23,"rangeStart":0,"value":59,"valueType":"double"},{"name":"underline","rangeEnd":23,"rangeStart":0,"value":0,"valueType":"int"},{"name":"fontItalic","rangeEnd":23,"rangeStart":0,"value":2,"valueType":"int"},{"name":"fontWeight","rangeEnd":23,"rangeStart":0,"value":100,"valueType":"int"},{"name":"fontName","rangeEnd":23,"rangeStart":0,"value":"OCR A Extended","valueType":"string"},{"name":"strikethrough","rangeEnd":23,"rangeStart":0,"value":0,"valueType":"int"},{"name":"fgColor","rangeEnd":23,"rangeStart":0,"value":"(255,255,255,255)","valueType":"color"}],
                                    "duration" : 0
                                  }
                                ]
                              }
                            },
                            "attributes" : {
                              "autoRotateText" : true
                            },
                            "parameters" : {
                              "translation0" : -0.0699565329669554,
                              "translation1" : 191.000000000108
                            },
                            "effects" : [
                                {
                                  "effectName" : "DropShadow",
                                  "parameters" : {
                                    "angle" : {
                                      "type" : "double",
                                      "defaultValue" : 5.49778714378214,
                                      "valueBounds" : {
                                        "minValue" : 0.0,
                                        "maxValue" : 0.0,
                                        "defaultValue" : 5.49778714378214
                                      },
                                      "uiHints" : {
                                        "userInterfaceType" : 0,
                                        "unitType" : 0
                                      }
                                    },
                                    "blur" : {
                                      "type" : "double",
                                      "defaultValue" : 10.0,
                                      "valueBounds" : {
                                        "minValue" : 0.0,
                                        "maxValue" : 50.0,
                                        "defaultValue" : 10.0
                                      },
                                      "uiHints" : {
                                        "userInterfaceType" : 0,
                                        "unitType" : 0
                                      }
                                    },
                                    "color-alpha" : {
                                      "type" : "double",
                                      "defaultValue" : 1.0,
                                      "valueBounds" : {
                                        "minValue" : 0.0,
                                        "maxValue" : 1.0,
                                        "defaultValue" : 1.0
                                      },
                                      "uiHints" : {
                                        "userInterfaceType" : 0,
                                        "unitType" : 0
                                      }
                                    },
                                    "color-blue" : {
                                      "type" : "double",
                                      "defaultValue" : 0.1216,
                                      "valueBounds" : {
                                        "minValue" : 0.0,
                                        "maxValue" : 1.0,
                                        "defaultValue" : 0.1216
                                      },
                                      "uiHints" : {
                                        "userInterfaceType" : 0,
                                        "unitType" : 0
                                      }
                                    },
                                    "color-green" : {
                                      "type" : "double",
                                      "defaultValue" : 0.1216,
                                      "valueBounds" : {
                                        "minValue" : 0.0,
                                        "maxValue" : 1.0,
                                        "defaultValue" : 0.1216
                                      },
                                      "uiHints" : {
                                        "userInterfaceType" : 0,
                                        "unitType" : 0
                                      }
                                    },
                                    "color-red" : {
                                      "type" : "double",
                                      "defaultValue" : 0.1216,
                                      "valueBounds" : {
                                        "minValue" : 0.0,
                                        "maxValue" : 1.0,
                                        "defaultValue" : 0.1216
                                      },
                                      "uiHints" : {
                                        "userInterfaceType" : 0,
                                        "unitType" : 0
                                      }
                                    },
                                    "enabled" : {
                                      "type" : "int",
                                      "valueBounds" : {
                                        "minValue" : 0,
                                        "maxValue" : 1,
                                        "defaultValue" : 1
                                      },
                                      "uiHints" : {
                                        "userInterfaceType" : 0,
                                        "unitType" : 0
                                      },
                                      "keyframes" : [
                                        {
                                          "time" : 0,
                                          "value" : 1,
                                          "duration" : 0
                                        }
                                      ]
                                    },
                                    "offset" : {
                                      "type" : "double",
                                      "defaultValue" : 10.0,
                                      "valueBounds" : {
                                        "minValue" : 0.0,
                                        "maxValue" : 250.0,
                                        "defaultValue" : 10.0
                                      },
                                      "uiHints" : {
                                        "userInterfaceType" : 0,
                                        "unitType" : 0
                                      }
                                    },
                                    "opacity" : {
                                      "type" : "double",
                                      "defaultValue" : 0.4,
                                      "valueBounds" : {
                                        "minValue" : 0.0,
                                        "maxValue" : 1.0,
                                        "defaultValue" : 0.4
                                      },
                                      "uiHints" : {
                                        "userInterfaceType" : 0,
                                        "unitType" : 0
                                      }
                                    }
                                  }
                                }
                            ],
                            "start" : 0,
                            "duration" : 185,
                            "mediaStart" : 0,
                            "mediaDuration" : 185,
                            "scalar" : 1,
                            "metadata" : {
                              "WinSubProjectDisplayName" : "",
                              "clipSpeedAttribute" : false,
                              "default-HAlign" : "left",
                              "default-VAlign" : "center",
                              "default-text-attributes" : "[{\"name\":\"fontSize\",\"rangeEnd\":18,\"rangeStart\":0,\"value\":88,\"valueType\":\"double\"},{\"name\":\"fgColor\",\"rangeEnd\":18,\"rangeStart\":0,\"value\":\"(255,255,255,255)\",\"valueType\":\"color\"},{\"name\":\"fontName\",\"rangeEnd\":18,\"rangeStart\":0,\"value\":\"Montserrat\",\"valueType\":\"string\"},{\"name\":\"fontItalic\",\"rangeEnd\":18,\"rangeStart\":0,\"value\":0,\"valueType\":\"int\"},{\"name\":\"underline\",\"rangeEnd\":18,\"rangeStart\":0,\"value\":0,\"valueType\":\"int\"},{\"name\":\"fontWeight\",\"rangeEnd\":18,\"rangeStart\":0,\"value\":100,\"valueType\":\"int\"},{\"name\":\"strikethrough\",\"rangeEnd\":18,\"rangeStart\":0,\"value\":0,\"valueType\":\"int\"}]",
                              "default-translation0" : -436.428571428523,
                              "default-translation1" : -318.000000000136
                            },
                            "animationTracks" : {

                            }
                          }
                        ],
                          "ident" : "",
                          "audioMuted" : false,
                          "videoHidden" : false,
                          "metadata" : {
                            "IsLocked" : "False",
                            "WinTrackHeight" : "1.17102904553997e-311"
                          }
                      }
                    ],
                    "attributes" : {
                      "ident" : "basictext-01",
                      "gain" : 1.0,
                      "mixToMono" : false
                    },
                    "effects" : [

                    ],
                    "start" : 1880,
                    "duration" : 185,
                    "mediaStart" : 0.0,
                    "mediaDuration" : 185.0,
                    "scalar" : 1,
                    "metadata" : {
                      "IsGroupExpanded" : "False",
                      "WinSubProjectDisplayName" : "",
                      "default-translation0" : 0.0,
                      "default-translation1" : 0.0
                    },
                    "animationTracks" : {

                    }
                  }
                ]
              },
              {
                "trackIndex" : 6,
                "medias" : [
                ]
              },
              {
                "trackIndex" : 7,
                "medias" : [
                ]
              }
            ]
          }
        }
      ]
    },
    "trackAttributes" : [
      {
        "ident" : "",
        "audioMuted" : false,
        "videoHidden" : false,
        "metadata" : {
          "IsLocked" : "False",
          "WinTrackHeight" : "56"
        }
      },
      {
        "ident" : "",
        "audioMuted" : false,
        "videoHidden" : false,
        "metadata" : {
          "IsLocked" : "False",
          "WinTrackHeight" : "56"
        }
      },
      {
        "ident" : "",
        "audioMuted" : false,
        "videoHidden" : false,
        "metadata" : {
          "IsLocked" : "False",
          "WinTrackHeight" : "56"
        }
      },
      {
        "ident" : "",
        "audioMuted" : false,
        "videoHidden" : false,
        "metadata" : {
          "IsLocked" : "False",
          "WinTrackHeight" : "56"
        }
      },
      {
        "ident" : "",
        "audioMuted" : false,
        "videoHidden" : false,
        "metadata" : {
          "IsLocked" : "False",
          "WinTrackHeight" : "56"
        }
      },
      {
        "ident" : "",
        "audioMuted" : false,
        "videoHidden" : false,
        "metadata" : {
          "IsLocked" : "False",
          "WinTrackHeight" : "56"
        }
      },
      {
        "ident" : "",
        "audioMuted" : false,
        "videoHidden" : false,
        "metadata" : {
          "IsLocked" : "False",
          "WinTrackHeight" : "56"
        }
      },
      {
        "ident" : "",
        "audioMuted" : false,
        "videoHidden" : false,
        "metadata" : {
          "IsLocked" : "False",
          "WinTrackHeight" : "56"
        }
      }
    ],
    "captionAttributes" : {
      "enabled" : true,
      "fontName" : "Arial",
      "fontSize" : 64,
      "backgroundColor" : [ 0, 0, 0, 191],
      "foregroundColor" : [ 255, 255, 255, 255],
      "lang" : "en",
      "alignment" : 0,
      "defaultFontSize" : true,
      "opacity" : 0.5,
      "backgroundEnabled" : true,
      "backgroundOnlyAroundText" : true
    },
    "backgroundColor" : [ 0, 0, 0, 255]
  },
  "metadata" : {
    "AutoSaveFile" : "",
    "CanvasZoom" : 37,
    "Date" : "2021-01-20 09:09:31 PM",
    "Fit" : 0,
    "IsAutoSave" : "0",
    "Language" : "ENU",
    "ProfileName" : "MP4 with Smart Player (up to 1080p)",
    "Title" : "trailer",
    "audioNarrationNotes" : "",
    "calloutStyle" : "Basic",
    "canvasDetached" : "False",
    "canvasPositionHeight" : "0",
    "canvasPositionLeft" : "0",
    "canvasPositionTop" : "0",
    "canvasPositionWidth" : "0"
  }
}
